<svg width="55" height="55" viewBox="0 0 55 55" fill="none" xmlns="http://www.w3.org/2000/svg">
  <rect width="55" height="55" rx="20" fill="#007FAD" />
  <path
    d="M29.6667 26.3333L33.8333 30.5C34.1389 30.8056 34.2917 31.1944 34.2917 31.6667C34.2917 32.1389 34.1389 32.5278 33.8333 32.8333C33.5278 33.1389 33.1389 33.2917 32.6667 33.2917C32.1944 33.2917 31.8056 33.1389 31.5 32.8333L26.8333 28.1667C26.6667 28 26.5417 27.8122 26.4583 27.6033C26.375 27.3956 26.3333 27.1806 26.3333 26.9583V20.3333C26.3333 19.8611 26.4933 19.465 26.8133 19.145C27.1322 18.8261 27.5278 18.6667 28 18.6667C28.4722 18.6667 28.8683 18.8261 29.1883 19.145C29.5072 19.465 29.6667 19.8611 29.6667 20.3333V26.3333ZM28 42C24.6389 42 21.625 41.0067 18.9583 39.02C16.2917 37.0344 14.5 34.4444 13.5833 31.25C13.4444 30.75 13.4933 30.2778 13.73 29.8333C13.9656 29.3889 14.3333 29.1111 14.8333 29C15.3056 28.8889 15.7294 28.9928 16.105 29.3117C16.4794 29.6317 16.7361 30.0278 16.875 30.5C17.5972 32.9444 18.9933 34.9167 21.0633 36.4167C23.1322 37.9167 25.4444 38.6667 28 38.6667C31.25 38.6667 34.0067 37.5344 36.27 35.27C38.5344 33.0067 39.6667 30.25 39.6667 27C39.6667 23.75 38.5344 20.9928 36.27 18.7283C34.0067 16.465 31.25 15.3333 28 15.3333C26.0833 15.3333 24.2917 15.7778 22.625 16.6667C20.9583 17.5556 19.5556 18.7778 18.4167 20.3333H21.3333C21.8056 20.3333 22.2017 20.4928 22.5217 20.8117C22.8406 21.1317 23 21.5278 23 22C23 22.4722 22.8406 22.8678 22.5217 23.1867C22.2017 23.5067 21.8056 23.6667 21.3333 23.6667H14.6667C14.1944 23.6667 13.7989 23.5067 13.48 23.1867C13.16 22.8678 13 22.4722 13 22V15.3333C13 14.8611 13.16 14.465 13.48 14.145C13.7989 13.8261 14.1944 13.6667 14.6667 13.6667C15.1389 13.6667 15.535 13.8261 15.855 14.145C16.1739 14.465 16.3333 14.8611 16.3333 15.3333V17.5833C17.75 15.8056 19.4794 14.4306 21.5217 13.4583C23.5628 12.4861 25.7222 12 28 12C30.0833 12 32.035 12.3956 33.855 13.1867C35.6739 13.9789 37.2572 15.0483 38.605 16.395C39.9517 17.7428 41.0211 19.3261 41.8133 21.145C42.6044 22.965 43 24.9167 43 27C43 29.0833 42.6044 31.0344 41.8133 32.8533C41.0211 34.6733 39.9517 36.2567 38.605 37.6033C37.2572 38.9511 35.6739 40.0211 33.855 40.8133C32.035 41.6044 30.0833 42 28 42Z"
    fill="white" />
</svg>