<svg width="40" height="40" viewBox="0 0 40 40" fill="none" xmlns="http://www.w3.org/2000/svg">
  <path
    d="M21.6667 19.3333L25.8333 23.5C26.1389 23.8056 26.2917 24.1944 26.2917 24.6667C26.2917 25.1389 26.1389 25.5278 25.8333 25.8333C25.5278 26.1389 25.1389 26.2917 24.6667 26.2917C24.1944 26.2917 23.8056 26.1389 23.5 25.8333L18.8333 21.1667C18.6667 21 18.5417 20.8122 18.4583 20.6033C18.375 20.3956 18.3333 20.1806 18.3333 19.9583V13.3333C18.3333 12.8611 18.4933 12.465 18.8133 12.145C19.1322 11.8261 19.5278 11.6667 20 11.6667C20.4722 11.6667 20.8683 11.8261 21.1883 12.145C21.5072 12.465 21.6667 12.8611 21.6667 13.3333V19.3333ZM20 35C16.6389 35 13.625 34.0067 10.9583 32.02C8.29167 30.0344 6.5 27.4444 5.58333 24.25C5.44444 23.75 5.49333 23.2778 5.73 22.8333C5.96556 22.3889 6.33333 22.1111 6.83333 22C7.30556 21.8889 7.72944 21.9928 8.105 22.3117C8.47944 22.6317 8.73611 23.0278 8.875 23.5C9.59722 25.9444 10.9933 27.9167 13.0633 29.4167C15.1322 30.9167 17.4444 31.6667 20 31.6667C23.25 31.6667 26.0067 30.5344 28.27 28.27C30.5344 26.0067 31.6667 23.25 31.6667 20C31.6667 16.75 30.5344 13.9928 28.27 11.7283C26.0067 9.465 23.25 8.33333 20 8.33333C18.0833 8.33333 16.2917 8.77778 14.625 9.66667C12.9583 10.5556 11.5556 11.7778 10.4167 13.3333H13.3333C13.8056 13.3333 14.2017 13.4928 14.5217 13.8117C14.8406 14.1317 15 14.5278 15 15C15 15.4722 14.8406 15.8678 14.5217 16.1867C14.2017 16.5067 13.8056 16.6667 13.3333 16.6667H6.66667C6.19444 16.6667 5.79889 16.5067 5.48 16.1867C5.16 15.8678 5 15.4722 5 15V8.33333C5 7.86111 5.16 7.465 5.48 7.145C5.79889 6.82611 6.19444 6.66667 6.66667 6.66667C7.13889 6.66667 7.535 6.82611 7.855 7.145C8.17389 7.465 8.33333 7.86111 8.33333 8.33333V10.5833C9.75 8.80556 11.4794 7.43056 13.5217 6.45833C15.5628 5.48611 17.7222 5 20 5C22.0833 5 24.035 5.39556 25.855 6.18667C27.6739 6.97889 29.2572 8.04833 30.605 9.395C31.9517 10.7428 33.0211 12.3261 33.8133 14.145C34.6044 15.965 35 17.9167 35 20C35 22.0833 34.6044 24.0344 33.8133 25.8533C33.0211 27.6733 31.9517 29.2567 30.605 30.6033C29.2572 31.9511 27.6739 33.0211 25.855 33.8133C24.035 34.6044 22.0833 35 20 35Z"
    fill="black" />
</svg>