<svg width="40" height="40" viewBox="0 0 40 40" fill="none" xmlns="http://www.w3.org/2000/svg">
  <path
    d="M20.0001 6.66663C21.7682 6.66663 23.4639 7.369 24.7141 8.61925C25.9644 9.86949 26.6667 11.5652 26.6667 13.3333C26.6667 15.1014 25.9644 16.7971 24.7141 18.0473C23.4639 19.2976 21.7682 20 20.0001 20C18.232 20 16.5363 19.2976 15.286 18.0473C14.0358 16.7971 13.3334 15.1014 13.3334 13.3333C13.3334 11.5652 14.0358 9.86949 15.286 8.61925C16.5363 7.369 18.232 6.66663 20.0001 6.66663ZM20.0001 23.3333C27.3667 23.3333 33.3334 26.3166 33.3334 30V33.3333H6.66675V30C6.66675 26.3166 12.6334 23.3333 20.0001 23.3333Z"
    fill="black" />
</svg>