<svg width="55" height="55" viewBox="0 0 55 55" fill="none" xmlns="http://www.w3.org/2000/svg">
  <rect width="55" height="55" rx="20" fill="#C94A30" />
  <path
    d="M28 12C29.9891 12 31.8968 12.7902 33.3033 14.1967C34.7098 15.6032 35.5 17.5109 35.5 19.5C35.5 21.4891 34.7098 23.3968 33.3033 24.8033C31.8968 26.2098 29.9891 27 28 27C26.0109 27 24.1032 26.2098 22.6967 24.8033C21.2902 23.3968 20.5 21.4891 20.5 19.5C20.5 17.5109 21.2902 15.6032 22.6967 14.1967C24.1032 12.7902 26.0109 12 28 12ZM28 30.75C36.2875 30.75 43 34.1063 43 38.25V42H13V38.25C13 34.1063 19.7125 30.75 28 30.75Z"
    fill="white" />
</svg>