<svg width="246" height="61" viewBox="0 0 246 61" fill="none" xmlns="http://www.w3.org/2000/svg">
  <path
    d="M134.07 4.00046C141.29 3.98115 149.423 4.56664 158.889 6.03595C160.006 6.1935 170.77 12.3831 173.672 16.655C176.574 20.9273 177.567 29.0593 177.567 29.0593C178.35 32.3895 177.874 37.894 177.656 38.4291C177.361 39.5879 175.695 40.5604 172.833 41.2636C172.499 35.9126 168.1 31.743 162.781 31.7364C157.212 31.7364 152.698 36.2877 152.698 41.9012C152.701 42.3494 152.734 42.797 152.797 43.2409C152.648 43.2429 152.479 43.247 152.338 43.2485L92.0227 43.7542C92.1369 43.1432 92.1954 42.5229 92.1974 41.9012C92.1974 36.2877 87.6826 31.7364 82.114 31.7364C76.545 31.7364 72.0307 36.2877 72.0307 41.9012C72.0307 42.5792 72.0977 43.2556 72.2313 43.9199L56.5553 44.0513C56.223 38.2543 54.826 32.1662 58.3259 27.0965C59.7013 25.1042 66.3749 21.4962 83.2898 18.797C92.029 14.3728 100.558 9.35651 109.847 6.48192C117.008 5.04997 124.785 4.02511 134.07 4.00046ZM138.405 7.04582C136.893 7.057 135.506 7.11951 134.368 7.25165L132.531 19.5388C142.975 18.2445 153.617 17.0832 159.243 12.5505C159.154 11.1529 157.236 9.12958 155.082 8.35605C153.862 7.91795 144.956 6.99753 138.404 7.04582H138.405ZM129.676 7.13425C123.371 7.20133 114.039 7.81782 107.618 10.6767C104.542 12.1124 98.7516 15.4729 94.8788 18.44L96.4795 21.1171C106.993 20.6394 121.004 20.049 126.755 19.3942L129.676 7.13425H129.676ZM162.781 35.8023C164.386 35.8023 165.925 36.4449 167.059 37.5886C168.194 38.7324 168.831 40.2837 168.831 41.9012C168.831 43.5187 168.194 45.0699 167.059 46.2137C165.925 47.3574 164.386 48 162.781 48C161.177 48 159.638 47.3574 158.503 46.2137C157.369 45.0699 156.731 43.5187 156.731 41.9012C156.731 40.2837 157.369 38.7324 158.503 37.5886C159.638 36.4449 161.177 35.8023 162.781 35.8023ZM82.1143 35.8023C83.7188 35.8023 85.2577 36.4449 86.3923 37.5886C87.5269 38.7324 88.1643 40.2837 88.1643 41.9012C88.1643 43.5187 87.5269 45.0699 86.3923 46.2137C85.2577 47.3574 83.7188 48 82.1143 48C80.5097 48 78.9709 47.3574 77.8363 46.2137C76.7017 45.0699 76.0643 43.5187 76.0643 41.9012C76.0643 40.2837 76.7017 38.7324 77.8363 37.5886C78.9709 36.4449 80.5097 35.8023 82.1143 35.8023Z"
    fill="#F48F00" />
  <path
    d="M195.3 58.15C192.7 58.15 190.217 57.85 187.85 57.25C185.517 56.65 183.517 55.7667 181.85 54.6L185.3 47.95C186.433 48.85 187.833 49.55 189.5 50.05C191.2 50.5833 192.85 50.85 194.45 50.85C197.017 50.85 198.867 50.2833 200 49.15C201.133 48.05 201.7 46.4333 201.7 44.3V41.1L202.2 33.5L202.15 25.85V20.9H211.2V43.05C211.2 48.1833 209.817 51.9833 207.05 54.45C204.283 56.9167 200.367 58.15 195.3 58.15ZM193.65 46.6C191.25 46.6 189.033 46.0667 187 45C185 43.9 183.383 42.3833 182.15 40.45C180.95 38.4833 180.35 36.1667 180.35 33.5C180.35 30.8333 180.95 28.5333 182.15 26.6C183.383 24.6333 185 23.1167 187 22.05C189.033 20.9833 191.25 20.45 193.65 20.45C195.95 20.45 197.917 20.9167 199.55 21.85C201.183 22.75 202.417 24.1667 203.25 26.1C204.117 28.0333 204.55 30.5 204.55 33.5C204.55 36.5 204.117 38.9667 203.25 40.9C202.417 42.8333 201.183 44.2667 199.55 45.2C197.917 46.1333 195.95 46.6 193.65 46.6ZM195.9 39.05C197.033 39.05 198.033 38.8167 198.9 38.35C199.8 37.8833 200.5 37.2333 201 36.4C201.533 35.5667 201.8 34.6 201.8 33.5C201.8 32.4 201.533 31.4333 201 30.6C200.5 29.7667 199.8 29.1333 198.9 28.7C198.033 28.2333 197.033 28 195.9 28C194.767 28 193.75 28.2333 192.85 28.7C191.95 29.1333 191.233 29.7667 190.7 30.6C190.2 31.4333 189.95 32.4 189.95 33.5C189.95 34.6 190.2 35.5667 190.7 36.4C191.233 37.2333 191.95 37.8833 192.85 38.35C193.75 38.8167 194.767 39.05 195.9 39.05ZM228.404 48.45C225.437 48.45 222.804 47.85 220.504 46.65C218.204 45.45 216.387 43.8 215.054 41.7C213.754 39.5667 213.104 37.1333 213.104 34.4C213.104 31.6667 213.754 29.25 215.054 27.15C216.387 25.05 218.204 23.4167 220.504 22.25C222.804 21.05 225.437 20.45 228.404 20.45C231.371 20.45 234.004 21.05 236.304 22.25C238.637 23.4167 240.454 25.05 241.754 27.15C243.054 29.25 243.704 31.6667 243.704 34.4C243.704 37.1333 243.054 39.5667 241.754 41.7C240.454 43.8 238.637 45.45 236.304 46.65C234.004 47.85 231.371 48.45 228.404 48.45ZM228.404 40.9C229.504 40.9 230.471 40.65 231.304 40.15C232.171 39.65 232.854 38.9167 233.354 37.95C233.854 36.95 234.104 35.7667 234.104 34.4C234.104 33.0333 233.854 31.8833 233.354 30.95C232.854 29.9833 232.171 29.25 231.304 28.75C230.471 28.25 229.504 28 228.404 28C227.337 28 226.371 28.25 225.504 28.75C224.671 29.25 223.987 29.9833 223.454 30.95C222.954 31.8833 222.704 33.0333 222.704 34.4C222.704 35.7667 222.954 36.95 223.454 37.95C223.987 38.9167 224.671 39.65 225.504 40.15C226.371 40.65 227.337 40.9 228.404 40.9Z"
    fill="#C94A30" />
  <path
    d="M15.15 48.45C11.6833 48.45 8.98333 47.6 7.05 45.9C5.11667 44.1667 4.15 41.5667 4.15 38.1V14.85H13.65V38C13.65 38.9667 13.9167 39.7333 14.45 40.3C14.9833 40.8333 15.6667 41.1 16.5 41.1C17.6333 41.1 18.6 40.8167 19.4 40.25L21.75 46.9C20.95 47.4333 19.9667 47.8167 18.8 48.05C17.6333 48.3167 16.4167 48.45 15.15 48.45ZM0.2 29V21.9H19.85V29H0.2ZM22.9133 48V20.9H31.9633V28.8L30.6133 26.55C31.4133 24.5167 32.7133 23 34.5133 22C36.3133 20.9667 38.4966 20.45 41.0633 20.45V29C40.6299 28.9333 40.2466 28.9 39.9133 28.9C39.6133 28.8667 39.2799 28.85 38.9133 28.85C36.9799 28.85 35.4133 29.3833 34.2133 30.45C33.0133 31.4833 32.4133 33.1833 32.4133 35.55V48H22.9133ZM42.4836 48V20.9H51.9836V48H42.4836ZM47.2336 17.9C45.5003 17.9 44.1003 17.4167 43.0336 16.45C41.9669 15.4833 41.4336 14.2833 41.4336 12.85C41.4336 11.4167 41.9669 10.2167 43.0336 9.25C44.1003 8.28333 45.5003 7.8 47.2336 7.8C48.9669 7.8 50.3669 8.26667 51.4336 9.2C52.5003 10.1 53.0336 11.2667 53.0336 12.7C53.0336 14.2 52.5003 15.45 51.4336 16.45C50.4003 17.4167 49.0003 17.9 47.2336 17.9Z"
    fill="#007FAD" />
</svg>