<svg width="50" height="45" viewBox="0 0 50 45" fill="none" xmlns="http://www.w3.org/2000/svg">
  <path
    d="M26.2326 18.9583C26.2326 20.4514 25.3212 21.3108 23.7153 21.3108H21.6059V16.6059H23.724C25.3212 16.6059 26.2326 17.4566 26.2326 18.9583ZM30.3559 24.3924C30.3559 25.1129 30.9809 25.5816 31.9618 25.5816C33.2118 25.5816 34.1493 24.7917 34.1493 23.6806V23.0122L32.1094 23.1424C30.9549 23.2205 30.3559 23.6458 30.3559 24.3924ZM50 6.85765V37.4132C50 39.7135 48.1337 41.5799 45.8333 41.5799H4.16667C1.86632 41.5799 0 39.7135 0 37.4132V6.85765C0 4.5573 1.86632 2.69098 4.16667 2.69098H45.8333C48.1337 2.69098 50 4.5573 50 6.85765ZM11.0938 17.1181C11.8229 17.1788 12.5521 16.7535 13.0122 16.2153C13.4635 15.6597 13.7587 14.9132 13.6806 14.158C13.0382 14.184 12.2396 14.5833 11.7795 15.1389C11.3628 15.6163 11.0069 16.3889 11.0938 17.1181ZM16.3542 23.5851C16.3368 23.5677 14.6528 22.9254 14.6354 20.9809C14.6181 19.3576 15.9635 18.5764 16.0243 18.533C15.2604 17.4045 14.0799 17.283 13.6719 17.2569C12.6128 17.1962 11.7101 17.8559 11.2066 17.8559C10.6944 17.8559 9.93056 17.283 9.09722 17.3004C8.01215 17.3177 6.99653 17.934 6.44965 18.9149C5.3125 20.8767 6.15451 23.776 7.25694 25.3733C7.79514 26.1632 8.44618 27.0313 9.29687 26.9965C10.1042 26.9618 10.4253 26.4757 11.3976 26.4757C12.3785 26.4757 12.6562 26.9965 13.5069 26.9879C14.3924 26.9705 14.9392 26.1979 15.4861 25.408C16.0851 24.5052 16.3368 23.6372 16.3542 23.5851ZM28.1076 18.9497C28.1076 16.6406 26.5017 15.0608 24.2101 15.0608H19.7656V26.901H21.6059V22.8559H24.1493C26.4757 22.8559 28.1076 21.2587 28.1076 18.9497ZM35.9201 21.0069C35.9201 19.2969 34.5486 18.1944 32.4479 18.1944C30.4948 18.1944 29.0538 19.3142 29.0017 20.842H30.6597C30.7986 20.1129 31.4757 19.6354 32.3958 19.6354C33.5243 19.6354 34.1493 20.1563 34.1493 21.1285V21.7795L31.8576 21.9184C29.7222 22.0486 28.5677 22.9254 28.5677 24.4444C28.5677 25.9809 29.7569 26.9965 31.467 26.9965C32.6215 26.9965 33.6892 26.4149 34.1753 25.4861H34.2101V26.9097H35.9115V21.0069H35.9201ZM44.7917 18.3073H42.9253L40.7639 25.3038H40.7292L38.5677 18.3073H36.6319L39.7483 26.9271L39.5833 27.4479C39.3056 28.3333 38.8455 28.6806 38.0295 28.6806C37.8819 28.6806 37.6042 28.6632 37.4913 28.6545V30.0781C37.5955 30.1129 38.0556 30.1215 38.1944 30.1215C39.9913 30.1215 40.8333 29.4358 41.5712 27.3611L44.7917 18.3073Z"
    fill="#FFF5E7" />
</svg>