<svg width="350" height="80" viewBox="0 0 350 80" fill="none" xmlns="http://www.w3.org/2000/svg">
<rect width="350" height="80" rx="20" fill="#F48F00"/>
<path d="M180.45 51L188.85 29.82H193.11L201.42 51H196.44L190.08 33.42H191.79L185.34 51H180.45ZM185.22 47.16V43.32H196.77V47.16H185.22ZM211.875 51.3C210.895 51.3 209.995 51.11 209.175 50.73C208.355 50.35 207.685 49.83 207.165 49.17C206.645 48.49 206.345 47.72 206.265 46.86V40.71C206.345 39.85 206.645 39.07 207.165 38.37C207.685 37.67 208.355 37.12 209.175 36.72C209.995 36.32 210.895 36.12 211.875 36.12C213.255 36.12 214.475 36.45 215.535 37.11C216.615 37.77 217.455 38.67 218.055 39.81C218.675 40.95 218.985 42.25 218.985 43.71C218.985 45.17 218.675 46.47 218.055 47.61C217.455 48.75 216.615 49.65 215.535 50.31C214.475 50.97 213.255 51.3 211.875 51.3ZM211.035 47.16C211.695 47.16 212.265 47.01 212.745 46.71C213.245 46.41 213.635 46 213.915 45.48C214.195 44.96 214.335 44.37 214.335 43.71C214.335 43.03 214.195 42.43 213.915 41.91C213.635 41.39 213.245 40.99 212.745 40.71C212.265 40.41 211.705 40.26 211.065 40.26C210.425 40.26 209.855 40.41 209.355 40.71C208.875 40.99 208.495 41.39 208.215 41.91C207.935 42.43 207.795 43.03 207.795 43.71C207.795 44.37 207.925 44.96 208.185 45.48C208.465 46 208.855 46.41 209.355 46.71C209.855 47.01 210.415 47.16 211.035 47.16ZM203.475 57.15V36.42H208.065V40.17L207.315 43.71L208.005 47.25V57.15H203.475ZM229.717 51.3C228.737 51.3 227.837 51.11 227.017 50.73C226.197 50.35 225.527 49.83 225.007 49.17C224.487 48.49 224.187 47.72 224.107 46.86V40.71C224.187 39.85 224.487 39.07 225.007 38.37C225.527 37.67 226.197 37.12 227.017 36.72C227.837 36.32 228.737 36.12 229.717 36.12C231.097 36.12 232.317 36.45 233.377 37.11C234.457 37.77 235.297 38.67 235.897 39.81C236.517 40.95 236.827 42.25 236.827 43.71C236.827 45.17 236.517 46.47 235.897 47.61C235.297 48.75 234.457 49.65 233.377 50.31C232.317 50.97 231.097 51.3 229.717 51.3ZM228.877 47.16C229.537 47.16 230.107 47.01 230.587 46.71C231.087 46.41 231.477 46 231.757 45.48C232.037 44.96 232.177 44.37 232.177 43.71C232.177 43.03 232.037 42.43 231.757 41.91C231.477 41.39 231.087 40.99 230.587 40.71C230.107 40.41 229.547 40.26 228.907 40.26C228.267 40.26 227.697 40.41 227.197 40.71C226.717 40.99 226.337 41.39 226.057 41.91C225.777 42.43 225.637 43.03 225.637 43.71C225.637 44.37 225.767 44.96 226.027 45.48C226.307 46 226.697 46.41 227.197 46.71C227.697 47.01 228.257 47.16 228.877 47.16ZM221.317 57.15V36.42H225.907V40.17L225.157 43.71L225.847 47.25V57.15H221.317ZM239.159 51V29.22H243.749V51H239.159ZM254.181 51.33C252.601 51.33 251.191 51.01 249.951 50.37C248.731 49.71 247.771 48.8 247.071 47.64C246.371 46.48 246.021 45.17 246.021 43.71C246.021 42.25 246.361 40.95 247.041 39.81C247.741 38.65 248.681 37.74 249.861 37.08C251.041 36.42 252.371 36.09 253.851 36.09C255.291 36.09 256.561 36.4 257.661 37.02C258.761 37.64 259.621 38.5 260.241 39.6C260.881 40.7 261.201 41.96 261.201 43.38C261.201 43.64 261.181 43.92 261.141 44.22C261.121 44.5 261.071 44.83 260.991 45.21L248.421 45.24V42.09L259.041 42.06L257.061 43.38C257.041 42.54 256.911 41.85 256.671 41.31C256.431 40.75 256.071 40.33 255.591 40.05C255.131 39.75 254.561 39.6 253.881 39.6C253.161 39.6 252.531 39.77 251.991 40.11C251.471 40.43 251.061 40.89 250.761 41.49C250.481 42.09 250.341 42.82 250.341 43.68C250.341 44.54 250.491 45.28 250.791 45.9C251.111 46.5 251.551 46.97 252.111 47.31C252.691 47.63 253.371 47.79 254.151 47.79C254.871 47.79 255.521 47.67 256.101 47.43C256.681 47.17 257.191 46.79 257.631 46.29L260.151 48.81C259.431 49.65 258.561 50.28 257.541 50.7C256.521 51.12 255.401 51.33 254.181 51.33ZM273.15 43.29V39.63H277.71C278.29 39.63 278.82 39.51 279.3 39.27C279.78 39.03 280.16 38.68 280.44 38.22C280.72 37.76 280.86 37.2 280.86 36.54C280.86 35.9 280.72 35.35 280.44 34.89C280.16 34.43 279.78 34.08 279.3 33.84C278.82 33.6 278.29 33.48 277.71 33.48H273.15V29.82H278.4C279.74 29.82 280.95 30.09 282.03 30.63C283.11 31.17 283.96 31.95 284.58 32.97C285.22 33.97 285.54 35.16 285.54 36.54C285.54 37.92 285.22 39.12 284.58 40.14C283.96 41.14 283.11 41.92 282.03 42.48C280.95 43.02 279.74 43.29 278.4 43.29H273.15ZM269.55 51V29.82H274.26V51H269.55ZM293.442 51.3C292.102 51.3 290.902 50.97 289.842 50.31C288.802 49.65 287.972 48.75 287.352 47.61C286.752 46.47 286.452 45.17 286.452 43.71C286.452 42.25 286.752 40.95 287.352 39.81C287.972 38.67 288.802 37.77 289.842 37.11C290.902 36.45 292.102 36.12 293.442 36.12C294.422 36.12 295.302 36.31 296.082 36.69C296.882 37.07 297.532 37.6 298.032 38.28C298.532 38.94 298.812 39.7 298.872 40.56V46.86C298.812 47.72 298.532 48.49 298.032 49.17C297.552 49.83 296.912 50.35 296.112 50.73C295.312 51.11 294.422 51.3 293.442 51.3ZM294.372 47.16C295.352 47.16 296.142 46.84 296.742 46.2C297.342 45.54 297.642 44.71 297.642 43.71C297.642 43.03 297.502 42.43 297.222 41.91C296.962 41.39 296.582 40.99 296.082 40.71C295.602 40.41 295.042 40.26 294.402 40.26C293.762 40.26 293.192 40.41 292.692 40.71C292.212 40.99 291.822 41.39 291.522 41.91C291.242 42.43 291.102 43.03 291.102 43.71C291.102 44.37 291.242 44.96 291.522 45.48C291.802 46 292.192 46.41 292.692 46.71C293.192 47.01 293.752 47.16 294.372 47.16ZM297.462 51V47.07L298.152 43.53L297.462 39.99V36.42H301.962V51H297.462ZM309.694 51.06L303.694 36.42H308.644L312.454 48.03H310.624L314.524 36.42H319.474L313.234 51.06H309.694ZM305.944 57.15L310.324 47.7L313.234 51.06L310.654 57.15H305.944Z" fill="#FFF5E7"/>
<path d="M66.2326 36.9583C66.2326 38.4514 65.3212 39.3108 63.7153 39.3108H61.6059V34.6059H63.724C65.3212 34.6059 66.2326 35.4566 66.2326 36.9583ZM70.3559 42.3924C70.3559 43.1129 70.9809 43.5816 71.9618 43.5816C73.2118 43.5816 74.1493 42.7917 74.1493 41.6806V41.0122L72.1094 41.1424C70.9549 41.2205 70.3559 41.6458 70.3559 42.3924ZM90 24.8576V55.4132C90 57.7135 88.1337 59.5799 85.8333 59.5799H44.1667C41.8663 59.5799 40 57.7135 40 55.4132V24.8576C40 22.5573 41.8663 20.691 44.1667 20.691H85.8333C88.1337 20.691 90 22.5573 90 24.8576ZM51.0938 35.1181C51.8229 35.1788 52.5521 34.7535 53.0122 34.2153C53.4635 33.6597 53.7587 32.9132 53.6806 32.158C53.0382 32.184 52.2396 32.5833 51.7795 33.1389C51.3628 33.6163 51.0069 34.3889 51.0938 35.1181ZM56.3542 41.5851C56.3368 41.5677 54.6528 40.9254 54.6354 38.9809C54.6181 37.3576 55.9635 36.5764 56.0243 36.533C55.2604 35.4045 54.0799 35.283 53.6719 35.2569C52.6128 35.1962 51.7101 35.8559 51.2066 35.8559C50.6944 35.8559 49.9306 35.283 49.0972 35.3004C48.0122 35.3177 46.9965 35.934 46.4497 36.9149C45.3125 38.8767 46.1545 41.776 47.2569 43.3733C47.7951 44.1632 48.4462 45.0313 49.2969 44.9965C50.1042 44.9618 50.4253 44.4757 51.3976 44.4757C52.3785 44.4757 52.6562 44.9965 53.5069 44.9879C54.3924 44.9705 54.9392 44.1979 55.4861 43.408C56.0851 42.5052 56.3368 41.6372 56.3542 41.5851ZM68.1076 36.9497C68.1076 34.6406 66.5017 33.0608 64.2101 33.0608H59.7656V44.901H61.6059V40.8559H64.1493C66.4757 40.8559 68.1076 39.2587 68.1076 36.9497ZM75.9201 39.0069C75.9201 37.2969 74.5486 36.1944 72.4479 36.1944C70.4948 36.1944 69.0538 37.3142 69.0017 38.842H70.6597C70.7986 38.1129 71.4757 37.6354 72.3958 37.6354C73.5243 37.6354 74.1493 38.1563 74.1493 39.1285V39.7795L71.8576 39.9184C69.7222 40.0486 68.5677 40.9254 68.5677 42.4444C68.5677 43.9809 69.7569 44.9965 71.467 44.9965C72.6215 44.9965 73.6892 44.4149 74.1753 43.4861H74.2101V44.9097H75.9115V39.0069H75.9201ZM84.7917 36.3073H82.9253L80.7639 43.3038H80.7292L78.5677 36.3073H76.6319L79.7483 44.9271L79.5833 45.4479C79.3056 46.3333 78.8455 46.6806 78.0295 46.6806C77.8819 46.6806 77.6042 46.6632 77.4913 46.6545V48.0781C77.5955 48.1129 78.0556 48.1215 78.1944 48.1215C79.9913 48.1215 80.8333 47.4358 81.5712 45.3611L84.7917 36.3073Z" fill="#FFF5E7"/>
</svg>
