<svg width="350" height="80" viewBox="0 0 350 80" fill="none" xmlns="http://www.w3.org/2000/svg">
<rect width="350" height="80" rx="20" fill="#007FAD"/>
<path d="M170.09 51.33C168.51 51.33 167.04 51.06 165.68 50.52C164.34 49.96 163.16 49.18 162.14 48.18C161.14 47.18 160.36 46.02 159.8 44.7C159.24 43.36 158.96 41.92 158.96 40.38C158.96 38.84 159.24 37.41 159.8 36.09C160.36 34.75 161.14 33.59 162.14 32.61C163.14 31.63 164.31 30.87 165.65 30.33C167.01 29.77 168.48 29.49 170.06 29.49C171.74 29.49 173.23 29.76 174.53 30.3C175.85 30.84 177 31.58 177.98 32.52L174.83 35.7C174.27 35.1 173.59 34.63 172.79 34.29C172.01 33.95 171.1 33.78 170.06 33.78C169.14 33.78 168.29 33.94 167.51 34.26C166.75 34.56 166.09 35 165.53 35.58C164.99 36.16 164.56 36.86 164.24 37.68C163.94 38.5 163.79 39.4 163.79 40.38C163.79 41.38 163.94 42.29 164.24 43.11C164.56 43.93 164.99 44.63 165.53 45.21C166.09 45.79 166.75 46.24 167.51 46.56C168.29 46.88 169.14 47.04 170.06 47.04C171.14 47.04 172.08 46.87 172.88 46.53C173.68 46.19 174.37 45.72 174.95 45.12L178.13 48.3C177.11 49.24 175.94 49.98 174.62 50.52C173.32 51.06 171.81 51.33 170.09 51.33ZM180.304 51V36.42H184.894V51H180.304ZM184.894 42.99L182.974 41.49C183.354 39.79 183.994 38.47 184.894 37.53C185.794 36.59 187.044 36.12 188.644 36.12C189.344 36.12 189.954 36.23 190.474 36.45C191.014 36.65 191.484 36.97 191.884 37.41L189.154 40.86C188.954 40.64 188.704 40.47 188.404 40.35C188.104 40.23 187.764 40.17 187.384 40.17C186.624 40.17 186.014 40.41 185.554 40.89C185.114 41.35 184.894 42.05 184.894 42.99ZM199.896 51.33C198.316 51.33 196.906 51.01 195.666 50.37C194.446 49.71 193.486 48.8 192.786 47.64C192.086 46.48 191.736 45.17 191.736 43.71C191.736 42.25 192.076 40.95 192.756 39.81C193.456 38.65 194.396 37.74 195.576 37.08C196.756 36.42 198.086 36.09 199.566 36.09C201.006 36.09 202.276 36.4 203.376 37.02C204.476 37.64 205.336 38.5 205.956 39.6C206.596 40.7 206.916 41.96 206.916 43.38C206.916 43.64 206.896 43.92 206.856 44.22C206.836 44.5 206.786 44.83 206.706 45.21L194.136 45.24V42.09L204.756 42.06L202.776 43.38C202.756 42.54 202.626 41.85 202.386 41.31C202.146 40.75 201.786 40.33 201.306 40.05C200.846 39.75 200.276 39.6 199.596 39.6C198.876 39.6 198.246 39.77 197.706 40.11C197.186 40.43 196.776 40.89 196.476 41.49C196.196 42.09 196.056 42.82 196.056 43.68C196.056 44.54 196.206 45.28 196.506 45.9C196.826 46.5 197.266 46.97 197.826 47.31C198.406 47.63 199.086 47.79 199.866 47.79C200.586 47.79 201.236 47.67 201.816 47.43C202.396 47.17 202.906 46.79 203.346 46.29L205.866 48.81C205.146 49.65 204.276 50.28 203.256 50.7C202.236 51.12 201.116 51.33 199.896 51.33ZM215.342 51.3C213.962 51.3 212.732 50.97 211.652 50.31C210.592 49.65 209.752 48.75 209.132 47.61C208.532 46.47 208.232 45.17 208.232 43.71C208.232 42.25 208.532 40.95 209.132 39.81C209.752 38.67 210.592 37.77 211.652 37.11C212.732 36.45 213.962 36.12 215.342 36.12C216.342 36.12 217.242 36.31 218.042 36.69C218.862 37.07 219.532 37.6 220.052 38.28C220.592 38.94 220.892 39.7 220.952 40.56V46.71C220.892 47.57 220.602 48.35 220.082 49.05C219.562 49.73 218.892 50.28 218.072 50.7C217.252 51.1 216.342 51.3 215.342 51.3ZM216.152 47.16C216.812 47.16 217.382 47.02 217.862 46.74C218.342 46.44 218.722 46.03 219.002 45.51C219.282 44.99 219.422 44.39 219.422 43.71C219.422 43.03 219.282 42.44 219.002 41.94C218.742 41.42 218.362 41.01 217.862 40.71C217.382 40.41 216.822 40.26 216.182 40.26C215.542 40.26 214.972 40.41 214.472 40.71C213.992 41.01 213.602 41.42 213.302 41.94C213.022 42.46 212.882 43.05 212.882 43.71C212.882 44.37 213.022 44.96 213.302 45.48C213.582 46 213.972 46.41 214.472 46.71C214.972 47.01 215.532 47.16 216.152 47.16ZM223.742 51H219.242V47.07L219.932 43.53L219.152 39.99V29.22H223.742V51ZM226.974 51V36.42H231.564V51H226.974ZM229.284 34.41C228.564 34.41 227.964 34.17 227.484 33.69C227.024 33.19 226.794 32.59 226.794 31.89C226.794 31.17 227.024 30.57 227.484 30.09C227.964 29.61 228.564 29.37 229.284 29.37C230.004 29.37 230.594 29.61 231.054 30.09C231.514 30.57 231.744 31.17 231.744 31.89C231.744 32.59 231.514 33.19 231.054 33.69C230.594 34.17 230.004 34.41 229.284 34.41ZM236.866 51V30.39H241.456V51H236.866ZM233.566 40.32V36.42H244.756V40.32H233.566ZM262.961 51.33C261.381 51.33 259.911 51.06 258.551 50.52C257.211 49.96 256.031 49.18 255.011 48.18C254.011 47.18 253.231 46.02 252.671 44.7C252.111 43.36 251.831 41.92 251.831 40.38C251.831 38.84 252.111 37.41 252.671 36.09C253.231 34.75 254.011 33.59 255.011 32.61C256.011 31.63 257.181 30.87 258.521 30.33C259.881 29.77 261.351 29.49 262.931 29.49C264.611 29.49 266.101 29.76 267.401 30.3C268.721 30.84 269.871 31.58 270.851 32.52L267.701 35.7C267.141 35.1 266.461 34.63 265.661 34.29C264.881 33.95 263.971 33.78 262.931 33.78C262.011 33.78 261.161 33.94 260.381 34.26C259.621 34.56 258.961 35 258.401 35.58C257.861 36.16 257.431 36.86 257.111 37.68C256.811 38.5 256.661 39.4 256.661 40.38C256.661 41.38 256.811 42.29 257.111 43.11C257.431 43.93 257.861 44.63 258.401 45.21C258.961 45.79 259.621 46.24 260.381 46.56C261.161 46.88 262.011 47.04 262.931 47.04C264.011 47.04 264.951 46.87 265.751 46.53C266.551 46.19 267.241 45.72 267.821 45.12L271.001 48.3C269.981 49.24 268.811 49.98 267.491 50.52C266.191 51.06 264.681 51.33 262.961 51.33ZM278.913 51.3C277.573 51.3 276.373 50.97 275.313 50.31C274.273 49.65 273.443 48.75 272.823 47.61C272.223 46.47 271.923 45.17 271.923 43.71C271.923 42.25 272.223 40.95 272.823 39.81C273.443 38.67 274.273 37.77 275.313 37.11C276.373 36.45 277.573 36.12 278.913 36.12C279.893 36.12 280.773 36.31 281.553 36.69C282.353 37.07 283.003 37.6 283.503 38.28C284.003 38.94 284.283 39.7 284.343 40.56V46.86C284.283 47.72 284.003 48.49 283.503 49.17C283.023 49.83 282.383 50.35 281.583 50.73C280.783 51.11 279.893 51.3 278.913 51.3ZM279.843 47.16C280.823 47.16 281.613 46.84 282.213 46.2C282.813 45.54 283.113 44.71 283.113 43.71C283.113 43.03 282.973 42.43 282.693 41.91C282.433 41.39 282.053 40.99 281.553 40.71C281.073 40.41 280.513 40.26 279.873 40.26C279.233 40.26 278.663 40.41 278.163 40.71C277.683 40.99 277.293 41.39 276.993 41.91C276.713 42.43 276.573 43.03 276.573 43.71C276.573 44.37 276.713 44.96 276.993 45.48C277.273 46 277.663 46.41 278.163 46.71C278.663 47.01 279.223 47.16 279.843 47.16ZM282.933 51V47.07L283.623 43.53L282.933 39.99V36.42H287.433V51H282.933ZM290.665 51V36.42H295.255V51H290.665ZM295.255 42.99L293.335 41.49C293.715 39.79 294.355 38.47 295.255 37.53C296.155 36.59 297.405 36.12 299.005 36.12C299.705 36.12 300.315 36.23 300.835 36.45C301.375 36.65 301.845 36.97 302.245 37.41L299.515 40.86C299.315 40.64 299.065 40.47 298.765 40.35C298.465 40.23 298.125 40.17 297.745 40.17C296.985 40.17 296.375 40.41 295.915 40.89C295.475 41.35 295.255 42.05 295.255 42.99ZM309.268 51.3C307.888 51.3 306.658 50.97 305.578 50.31C304.518 49.65 303.678 48.75 303.058 47.61C302.458 46.47 302.158 45.17 302.158 43.71C302.158 42.25 302.458 40.95 303.058 39.81C303.678 38.67 304.518 37.77 305.578 37.11C306.658 36.45 307.888 36.12 309.268 36.12C310.268 36.12 311.168 36.31 311.968 36.69C312.788 37.07 313.458 37.6 313.978 38.28C314.518 38.94 314.818 39.7 314.878 40.56V46.71C314.818 47.57 314.528 48.35 314.008 49.05C313.488 49.73 312.818 50.28 311.998 50.7C311.178 51.1 310.268 51.3 309.268 51.3ZM310.078 47.16C310.738 47.16 311.308 47.02 311.788 46.74C312.268 46.44 312.648 46.03 312.928 45.51C313.208 44.99 313.348 44.39 313.348 43.71C313.348 43.03 313.208 42.44 312.928 41.94C312.668 41.42 312.288 41.01 311.788 40.71C311.308 40.41 310.748 40.26 310.108 40.26C309.468 40.26 308.898 40.41 308.398 40.71C307.918 41.01 307.528 41.42 307.228 41.94C306.948 42.46 306.808 43.05 306.808 43.71C306.808 44.37 306.948 44.96 307.228 45.48C307.508 46 307.898 46.41 308.398 46.71C308.898 47.01 309.458 47.16 310.078 47.16ZM317.668 51H313.168V47.07L313.858 43.53L313.078 39.99V29.22H317.668V51Z" fill="#E8EEF0"/>
<path d="M40 52.5C40 54.1576 40.6585 55.7473 41.8306 56.9194C43.0027 58.0915 44.5924 58.75 46.25 58.75H83.75C85.4076 58.75 86.9973 58.0915 88.1694 56.9194C89.3415 55.7473 90 54.1576 90 52.5V36.875H40V52.5ZM75.9375 49.375C75.5231 49.375 75.1257 49.2104 74.8326 48.9174C74.5396 48.6243 74.375 48.2269 74.375 47.8125V44.6875C74.375 44.2731 74.5396 43.8757 74.8326 43.5826C75.1257 43.2896 75.5231 43.125 75.9375 43.125H82.1875C82.6019 43.125 82.9993 43.2896 83.2924 43.5826C83.5854 43.8757 83.75 44.2731 83.75 44.6875V47.8125C83.75 48.2269 83.5854 48.6243 83.2924 48.9174C82.9993 49.2104 82.6019 49.375 82.1875 49.375H75.9375ZM40 30.625V27.5C40 25.8424 40.6585 24.2527 41.8306 23.0806C43.0027 21.9085 44.5924 21.25 46.25 21.25H83.75C85.4076 21.25 86.9973 21.9085 88.1694 23.0806C89.3415 24.2527 90 25.8424 90 27.5V30.625H40Z" fill="#E8EEF0"/>
</svg>
