<svg width="50" height="50" viewBox="0 0 50 50" fill="none" xmlns="http://www.w3.org/2000/svg">
  <path
    d="M0 37.5C0 39.1576 0.65848 40.7473 1.83058 41.9194C3.00269 43.0915 4.5924 43.75 6.25 43.75H43.75C45.4076 43.75 46.9973 43.0915 48.1694 41.9194C49.3415 40.7473 50 39.1576 50 37.5V21.875H0V37.5ZM35.9375 34.375C35.5231 34.375 35.1257 34.2104 34.8326 33.9174C34.5396 33.6243 34.375 33.2269 34.375 32.8125V29.6875C34.375 29.2731 34.5396 28.8757 34.8326 28.5826C35.1257 28.2896 35.5231 28.125 35.9375 28.125H42.1875C42.6019 28.125 42.9993 28.2896 43.2924 28.5826C43.5854 28.8757 43.75 29.2731 43.75 29.6875V32.8125C43.75 33.2269 43.5854 33.6243 43.2924 33.9174C42.9993 34.2104 42.6019 34.375 42.1875 34.375H35.9375ZM0 15.625V12.5C0 10.8424 0.65848 9.25269 1.83058 8.08059C3.00269 6.90848 4.5924 6.25 6.25 6.25H43.75C45.4076 6.25 46.9973 6.90848 48.1694 8.08059C49.3415 9.25269 50 10.8424 50 12.5V15.625H0Z"
    fill="#E8EEF0" />
</svg>