<svg width="350" height="200" viewBox="0 0 350 200" fill="none" xmlns="http://www.w3.org/2000/svg">
  <rect width="350" height="200" rx="20" fill="#484848" />
  <path
    d="M44.9833 22.2875L38.4375 37.9042H34.1667L30.9458 25.4396C30.75 24.6729 30.5812 24.3917 29.9854 24.0687C29.0146 23.5417 27.4104 23.0479 26 22.7396L26.0958 22.2875H32.9708C33.4201 22.2871 33.8547 22.4472 34.1963 22.7391C34.5378 23.031 34.7638 23.4353 34.8333 23.8792L36.5354 32.9167L40.7396 22.2875H44.9833ZM61.7187 32.8063C61.7354 28.6833 56.0187 28.4563 56.0583 26.6146C56.0708 26.0542 56.6042 25.4583 57.7708 25.3063C59.1381 25.1764 60.5151 25.4182 61.7562 26.0063L62.4646 22.6938C61.2562 22.2395 59.9764 22.0045 58.6854 22C54.6917 22 51.8812 24.125 51.8562 27.1646C51.8312 29.4125 53.8625 30.6646 55.3937 31.4146C56.9687 32.1792 57.4979 32.6708 57.4896 33.3542C57.4792 34.4042 56.2354 34.8646 55.0729 34.8833C53.0417 34.9146 51.8646 34.3354 50.9229 33.8979L50.1917 37.3188C51.1354 37.7521 52.8771 38.1313 54.6833 38.1479C58.9271 38.1479 61.7042 36.0521 61.7187 32.8063ZM72.2625 37.9042H76L72.7396 22.2875H69.2896C68.921 22.2841 68.5598 22.3915 68.253 22.5958C67.9461 22.8001 67.7078 23.0919 67.5687 23.4333L61.5083 37.9042H65.75L66.5937 35.5708H71.7771L72.2625 37.9042ZM67.7562 32.3708L69.8812 26.5063L71.1062 32.3708H67.7562ZM50.7562 22.2875L47.4167 37.9042H43.375L46.7187 22.2875H50.7562Z"
    fill="white" />
  <rect x="26" y="75" width="40" height="30" rx="10" fill="#D9D9D9" />
  <path
    d="M28.25 184.165C27.86 184.165 27.535 184.03 27.275 183.76C27.015 183.49 26.885 183.165 26.885 182.785C26.885 182.385 27.015 182.055 27.275 181.795C27.535 181.525 27.86 181.39 28.25 181.39C28.65 181.39 28.975 181.525 29.225 181.795C29.485 182.055 29.615 182.385 29.615 182.785C29.615 183.165 29.485 183.49 29.225 183.76C28.975 184.03 28.65 184.165 28.25 184.165ZM32.7471 184.165C32.3571 184.165 32.0321 184.03 31.7721 183.76C31.5121 183.49 31.3821 183.165 31.3821 182.785C31.3821 182.385 31.5121 182.055 31.7721 181.795C32.0321 181.525 32.3571 181.39 32.7471 181.39C33.1471 181.39 33.4721 181.525 33.7221 181.795C33.9821 182.055 34.1121 182.385 34.1121 182.785C34.1121 183.165 33.9821 183.49 33.7221 183.76C33.4721 184.03 33.1471 184.165 32.7471 184.165ZM37.2441 184.165C36.8541 184.165 36.5291 184.03 36.2691 183.76C36.0091 183.49 35.8791 183.165 35.8791 182.785C35.8791 182.385 36.0091 182.055 36.2691 181.795C36.5291 181.525 36.8541 181.39 37.2441 181.39C37.6441 181.39 37.9691 181.525 38.2191 181.795C38.4791 182.055 38.6091 182.385 38.6091 182.785C38.6091 183.165 38.4791 183.49 38.2191 183.76C37.9691 184.03 37.6441 184.165 37.2441 184.165ZM41.7412 184.165C41.3512 184.165 41.0262 184.03 40.7662 183.76C40.5062 183.49 40.3762 183.165 40.3762 182.785C40.3762 182.385 40.5062 182.055 40.7662 181.795C41.0262 181.525 41.3512 181.39 41.7412 181.39C42.1412 181.39 42.4662 181.525 42.7162 181.795C42.9762 182.055 43.1062 182.385 43.1062 182.785C43.1062 183.165 42.9762 183.49 42.7162 183.76C42.4662 184.03 42.1412 184.165 41.7412 184.165ZM49.0947 184.165C48.7047 184.165 48.3797 184.03 48.1197 183.76C47.8597 183.49 47.7297 183.165 47.7297 182.785C47.7297 182.385 47.8597 182.055 48.1197 181.795C48.3797 181.525 48.7047 181.39 49.0947 181.39C49.4947 181.39 49.8197 181.525 50.0697 181.795C50.3297 182.055 50.4597 182.385 50.4597 182.785C50.4597 183.165 50.3297 183.49 50.0697 183.76C49.8197 184.03 49.4947 184.165 49.0947 184.165ZM53.5918 184.165C53.2018 184.165 52.8768 184.03 52.6168 183.76C52.3568 183.49 52.2268 183.165 52.2268 182.785C52.2268 182.385 52.3568 182.055 52.6168 181.795C52.8768 181.525 53.2018 181.39 53.5918 181.39C53.9918 181.39 54.3168 181.525 54.5668 181.795C54.8268 182.055 54.9568 182.385 54.9568 182.785C54.9568 183.165 54.8268 183.49 54.5668 183.76C54.3168 184.03 53.9918 184.165 53.5918 184.165ZM58.0889 184.165C57.6989 184.165 57.3739 184.03 57.1139 183.76C56.8539 183.49 56.7239 183.165 56.7239 182.785C56.7239 182.385 56.8539 182.055 57.1139 181.795C57.3739 181.525 57.6989 181.39 58.0889 181.39C58.4889 181.39 58.8139 181.525 59.0639 181.795C59.3239 182.055 59.4539 182.385 59.4539 182.785C59.4539 183.165 59.3239 183.49 59.0639 183.76C58.8139 184.03 58.4889 184.165 58.0889 184.165ZM62.5859 184.165C62.1959 184.165 61.8709 184.03 61.6109 183.76C61.3509 183.49 61.2209 183.165 61.2209 182.785C61.2209 182.385 61.3509 182.055 61.6109 181.795C61.8709 181.525 62.1959 181.39 62.5859 181.39C62.9859 181.39 63.3109 181.525 63.5609 181.795C63.8209 182.055 63.9509 182.385 63.9509 182.785C63.9509 183.165 63.8209 183.49 63.5609 183.76C63.3109 184.03 62.9859 184.165 62.5859 184.165ZM69.9395 184.165C69.5495 184.165 69.2245 184.03 68.9645 183.76C68.7045 183.49 68.5745 183.165 68.5745 182.785C68.5745 182.385 68.7045 182.055 68.9645 181.795C69.2245 181.525 69.5495 181.39 69.9395 181.39C70.3395 181.39 70.6645 181.525 70.9145 181.795C71.1745 182.055 71.3045 182.385 71.3045 182.785C71.3045 183.165 71.1745 183.49 70.9145 183.76C70.6645 184.03 70.3395 184.165 69.9395 184.165ZM74.4365 184.165C74.0465 184.165 73.7215 184.03 73.4615 183.76C73.2015 183.49 73.0715 183.165 73.0715 182.785C73.0715 182.385 73.2015 182.055 73.4615 181.795C73.7215 181.525 74.0465 181.39 74.4365 181.39C74.8365 181.39 75.1615 181.525 75.4115 181.795C75.6715 182.055 75.8015 182.385 75.8015 182.785C75.8015 183.165 75.6715 183.49 75.4115 183.76C75.1615 184.03 74.8365 184.165 74.4365 184.165ZM78.9336 184.165C78.5436 184.165 78.2186 184.03 77.9586 183.76C77.6986 183.49 77.5686 183.165 77.5686 182.785C77.5686 182.385 77.6986 182.055 77.9586 181.795C78.2186 181.525 78.5436 181.39 78.9336 181.39C79.3336 181.39 79.6586 181.525 79.9086 181.795C80.1686 182.055 80.2986 182.385 80.2986 182.785C80.2986 183.165 80.1686 183.49 79.9086 183.76C79.6586 184.03 79.3336 184.165 78.9336 184.165ZM83.4307 184.165C83.0407 184.165 82.7157 184.03 82.4557 183.76C82.1957 183.49 82.0657 183.165 82.0657 182.785C82.0657 182.385 82.1957 182.055 82.4557 181.795C82.7157 181.525 83.0407 181.39 83.4307 181.39C83.8307 181.39 84.1557 181.525 84.4057 181.795C84.6657 182.055 84.7957 182.385 84.7957 182.785C84.7957 183.165 84.6657 183.49 84.4057 183.76C84.1557 184.03 83.8307 184.165 83.4307 184.165ZM88.8492 180.325L92.3292 173.41H94.8942L91.3392 180.325H88.8492ZM88.8492 181.645V180.325L89.6292 179.65H97.3392V181.645H88.8492ZM93.8442 184V177.445H96.1542V184H93.8442ZM101.324 184.165C100.594 184.165 99.9087 184.04 99.2687 183.79C98.6387 183.53 98.1137 183.16 97.6937 182.68L99.2237 181.165C99.4137 181.445 99.6887 181.675 100.049 181.855C100.419 182.025 100.819 182.11 101.249 182.11C101.629 182.11 101.959 182.045 102.239 181.915C102.519 181.775 102.739 181.58 102.899 181.33C103.059 181.07 103.139 180.77 103.139 180.43C103.139 180.08 103.059 179.78 102.899 179.53C102.739 179.28 102.514 179.09 102.224 178.96C101.944 178.82 101.624 178.75 101.264 178.75C100.904 178.75 100.574 178.8 100.274 178.9C99.9737 178.99 99.6987 179.13 99.4487 179.32L99.6437 177.82C99.8737 177.64 100.094 177.495 100.304 177.385C100.514 177.265 100.744 177.175 100.994 177.115C101.244 177.055 101.539 177.025 101.879 177.025C102.659 177.025 103.314 177.185 103.844 177.505C104.384 177.825 104.789 178.25 105.059 178.78C105.339 179.31 105.479 179.895 105.479 180.535C105.479 181.235 105.304 181.86 104.954 182.41C104.614 182.96 104.134 183.39 103.514 183.7C102.894 184.01 102.164 184.165 101.324 184.165ZM99.4487 179.32L98.4287 178.375L98.9387 173.41H101.069L100.514 178.33L99.4487 179.32ZM99.2537 175.405L98.9387 173.41H104.894V175.405H99.2537ZM109.717 184.165C108.987 184.165 108.302 184.04 107.662 183.79C107.032 183.53 106.507 183.16 106.087 182.68L107.617 181.165C107.807 181.445 108.082 181.675 108.442 181.855C108.812 182.025 109.212 182.11 109.642 182.11C110.022 182.11 110.352 182.045 110.632 181.915C110.912 181.775 111.132 181.58 111.292 181.33C111.452 181.07 111.532 180.77 111.532 180.43C111.532 180.08 111.452 179.78 111.292 179.53C111.132 179.28 110.907 179.09 110.617 178.96C110.337 178.82 110.017 178.75 109.657 178.75C109.297 178.75 108.967 178.8 108.667 178.9C108.367 178.99 108.092 179.13 107.842 179.32L108.037 177.82C108.267 177.64 108.487 177.495 108.697 177.385C108.907 177.265 109.137 177.175 109.387 177.115C109.637 177.055 109.932 177.025 110.272 177.025C111.052 177.025 111.707 177.185 112.237 177.505C112.777 177.825 113.182 178.25 113.452 178.78C113.732 179.31 113.872 179.895 113.872 180.535C113.872 181.235 113.697 181.86 113.347 182.41C113.007 182.96 112.527 183.39 111.907 183.7C111.287 184.01 110.557 184.165 109.717 184.165ZM107.842 179.32L106.822 178.375L107.332 173.41H109.462L108.907 178.33L107.842 179.32ZM107.647 175.405L107.332 173.41H113.287V175.405H107.647ZM114.661 182.68L118.726 178.48C118.976 178.23 119.176 178 119.326 177.79C119.476 177.58 119.586 177.385 119.656 177.205C119.726 177.015 119.761 176.825 119.761 176.635C119.761 176.225 119.626 175.905 119.356 175.675C119.096 175.435 118.751 175.315 118.321 175.315C117.901 175.315 117.521 175.43 117.181 175.66C116.851 175.88 116.531 176.245 116.221 176.755L114.646 175.39C115.066 174.68 115.601 174.145 116.251 173.785C116.901 173.425 117.646 173.245 118.486 173.245C119.216 173.245 119.846 173.38 120.376 173.65C120.916 173.92 121.331 174.305 121.621 174.805C121.921 175.305 122.071 175.89 122.071 176.56C122.071 176.98 122.016 177.37 121.906 177.73C121.796 178.08 121.616 178.43 121.366 178.78C121.126 179.12 120.801 179.495 120.391 179.905L117.571 182.71L114.661 182.68ZM114.661 184V182.68L116.656 181.99H122.281V184H114.661Z"
    fill="white" />
  <path
    d="M175 64C167.802 67.2165 160.77 70.9047 153.739 74.593C150.439 76.3239 147.139 78.0547 143.822 79.7369C114.181 84.4751 102.486 90.8086 100.076 94.3059C95.0327 101.623 95.7916 110.15 96.5444 118.607C96.7071 120.435 96.8695 122.26 96.973 124.068L124.444 123.838C124.21 122.672 124.092 121.484 124.092 120.294C124.092 110.44 132.003 102.451 141.762 102.451C151.52 102.451 159.432 110.44 159.432 120.294C159.429 121.385 159.326 122.474 159.126 123.547L166.817 123.482L172.308 83.5665C172.286 83.5675 172.264 83.5685 172.241 83.5695C170.431 83.6512 168.657 83.7313 166.936 83.8096L164.131 79.1101C166.973 76.9287 170.405 74.6261 173.831 72.5014L175 64Z"
    fill="#65BBEC" />
  <path
    d="M149.259 112.724C147.271 110.716 144.574 109.588 141.762 109.588C138.951 109.588 136.254 110.716 134.266 112.724C132.277 114.732 131.16 117.455 131.16 120.294C131.16 123.133 132.277 125.857 134.266 127.864C136.254 129.872 138.951 131 141.762 131C144.574 131 147.271 129.872 149.259 127.864C151.248 125.857 152.364 123.133 152.364 120.294C152.364 117.455 151.248 114.732 149.259 112.724Z"
    fill="#65BBEC" />
  <path fill-rule="evenodd" clip-rule="evenodd"
    d="M272.827 120.148C272.828 120.421 272.837 120.693 272.851 120.964C272.878 121.486 272.928 122.005 273 122.522C272.739 122.526 272.442 122.533 272.195 122.536C272.332 122.534 272.482 122.531 272.634 122.529L273 122.522C272.892 121.736 272.833 120.943 272.827 120.148ZM239.508 122.812L245.616 79.498C245.778 79.477 245.94 79.4556 246.102 79.4346C243.911 79.7201 241.704 79.9947 239.496 80.2693L237.408 80.5295L240.634 58.7608C242.633 58.5266 245.068 58.4159 247.724 58.3961C248.011 58.3942 248.3 58.393 248.592 58.393L249.33 53.1608C249.531 53.1682 249.732 53.176 249.934 53.1838C246.552 53.0505 243.281 52.9923 240.11 53.0008C223.805 53.0447 210.147 54.8601 197.569 57.3971C184.789 61.3868 172.829 67.7049 160.868 74.0234C157.56 75.7705 154.253 77.5175 150.928 79.2156C121.221 83.9976 109.5 90.3899 107.084 93.9197C104.348 97.9183 103.316 102.274 103.065 106.783C103.32 102.291 104.358 97.9497 107.084 93.9655C109.5 90.4361 121.221 84.0438 150.928 79.2618C154.252 77.5641 157.559 75.8171 160.866 74.07L160.883 74.0631C167.924 70.3429 174.965 66.6228 182.174 63.3789L181.009 71.9086C177.574 74.0541 174.132 76.3799 171.281 78.5829L171.3 78.6147L171.281 78.6291L174.092 83.3723L179.477 83.1268L173.98 123.366L166.274 123.432C166.468 122.364 166.568 121.281 166.572 120.195V120.159V120.148C166.572 110.203 158.643 102.14 148.863 102.14C139.082 102.14 131.154 110.203 131.154 120.148V120.171V120.195C131.154 121.38 131.269 122.563 131.497 123.725L103.975 123.958C103.871 122.132 103.708 120.291 103.545 118.446C103.28 115.446 103.014 112.439 103 109.478C103.012 112.452 103.278 115.472 103.544 118.485L103.545 118.492C103.708 120.337 103.871 122.179 103.975 124.004L131.506 123.771L131.497 123.725H131.506C131.421 123.298 131.351 122.867 131.297 122.435C131.203 121.685 131.155 120.928 131.154 120.171C131.166 110.237 139.09 102.186 148.863 102.186C158.63 102.186 166.552 110.231 166.572 120.159C166.571 120.562 166.556 120.966 166.527 121.369C166.479 122.061 166.391 122.75 166.265 123.432H166.274L166.265 123.478L173.974 123.413L173.98 123.366L239.508 122.812ZM171.3 78.6147L174.092 83.326L179.397 83.0841C197.017 82.284 218.106 81.3258 227.264 80.2736L232.395 58.553C221.321 58.6719 204.932 59.7641 193.655 64.8288C190.517 66.3063 185.77 68.9346 181.009 71.9086L181.002 71.9591C177.577 74.0988 174.145 76.4172 171.3 78.6147ZM148.863 109.344C151.681 109.344 154.384 110.482 156.376 112.508C158.369 114.534 159.489 117.283 159.489 120.148V120.172C159.482 117.315 158.364 114.575 156.376 112.554C154.384 110.528 151.681 109.39 148.863 109.39C146.045 109.39 143.343 110.528 141.35 112.554C139.363 114.575 138.244 117.315 138.238 120.172V120.148C138.238 117.283 139.357 114.534 141.35 112.508C143.343 110.482 146.045 109.344 148.863 109.344ZM138.238 120.172V120.195C138.238 123.06 139.357 125.809 141.35 127.835C143.343 129.862 146.045 131 148.863 131C151.681 131 154.384 129.862 156.376 127.835C158.369 125.809 159.489 123.06 159.489 120.195V120.172C159.482 123.03 158.364 125.768 156.376 127.789C154.384 129.815 151.681 130.954 148.863 130.954C146.045 130.954 143.343 129.815 141.35 127.789C139.363 125.768 138.244 123.03 138.238 120.172Z"
    fill="#F7BA46" />
  <path
    d="M247 123.837L279.789 123.559C279.926 123.558 280.078 123.555 280.23 123.552C280.354 123.55 280.48 123.548 280.597 123.546C280.488 122.757 280.43 121.962 280.423 121.166C280.423 111.194 288.376 103.11 298.188 103.11C307.559 103.121 315.308 110.528 315.896 120.033C320.938 118.784 323.874 117.057 324.394 114.998C324.779 114.048 325.617 104.27 324.237 98.3539C324.237 98.3539 322.488 83.9083 317.375 76.3191C312.263 68.7304 293.299 57.7353 291.331 57.4555C278.575 55.459 267.192 54.3811 256.852 54L256.112 59.2461C267.558 59.2446 282.527 60.818 284.623 61.5769C288.419 62.951 291.798 66.5451 291.954 69.0279C283.522 75.8778 268.694 78.3933 253.127 80.4072L247 123.837Z"
    fill="#DE674F" />
  <path
    d="M305.725 113.505C303.726 111.474 301.015 110.332 298.188 110.332C295.361 110.332 292.65 111.474 290.651 113.505C288.652 115.537 287.529 118.293 287.529 121.166C287.529 124.039 288.652 126.795 290.651 128.827C292.65 130.859 295.361 132 298.188 132C301.015 132 303.726 130.859 305.725 128.827C307.724 126.795 308.847 124.039 308.847 121.166C308.847 118.293 307.724 115.537 305.725 113.505Z"
    fill="#DE674F" />
  <path
    d="M195.09 160.27C193.01 160.27 191.39 159.76 190.23 158.74C189.07 157.7 188.49 156.14 188.49 154.06V140.11H194.19V154C194.19 154.58 194.35 155.04 194.67 155.38C194.99 155.7 195.4 155.86 195.9 155.86C196.58 155.86 197.16 155.69 197.64 155.35L199.05 159.34C198.57 159.66 197.98 159.89 197.28 160.03C196.58 160.19 195.85 160.27 195.09 160.27ZM186.12 148.6V144.34H197.91V148.6H186.12ZM199.748 160V143.74H205.178V148.48L204.368 147.13C204.848 145.91 205.628 145 206.708 144.4C207.788 143.78 209.098 143.47 210.638 143.47V148.6C210.378 148.56 210.148 148.54 209.948 148.54C209.768 148.52 209.568 148.51 209.348 148.51C208.188 148.51 207.248 148.83 206.528 149.47C205.808 150.09 205.448 151.11 205.448 152.53V160H199.748ZM211.49 160V143.74H217.19V160H211.49ZM214.34 141.94C213.3 141.94 212.46 141.65 211.82 141.07C211.18 140.49 210.86 139.77 210.86 138.91C210.86 138.05 211.18 137.33 211.82 136.75C212.46 136.17 213.3 135.88 214.34 135.88C215.38 135.88 216.22 136.16 216.86 136.72C217.5 137.26 217.82 137.96 217.82 138.82C217.82 139.72 217.5 140.47 216.86 141.07C216.24 141.65 215.4 141.94 214.34 141.94Z"
    fill="#65BBEC" />
  <path
    d="M232.57 160.42C230.91 160.42 229.37 160.16 227.95 159.64C226.55 159.1 225.33 158.34 224.29 157.36C223.27 156.38 222.47 155.23 221.89 153.91C221.31 152.57 221.02 151.1 221.02 149.5C221.02 147.9 221.31 146.44 221.89 145.12C222.47 143.78 223.27 142.62 224.29 141.64C225.33 140.66 226.55 139.91 227.95 139.39C229.37 138.85 230.91 138.58 232.57 138.58C234.51 138.58 236.24 138.92 237.76 139.6C239.3 140.28 240.58 141.26 241.6 142.54L237.82 145.96C237.14 145.16 236.39 144.55 235.57 144.13C234.77 143.71 233.87 143.5 232.87 143.5C232.01 143.5 231.22 143.64 230.5 143.92C229.78 144.2 229.16 144.61 228.64 145.15C228.14 145.67 227.74 146.3 227.44 147.04C227.16 147.78 227.02 148.6 227.02 149.5C227.02 150.4 227.16 151.22 227.44 151.96C227.74 152.7 228.14 153.34 228.64 153.88C229.16 154.4 229.78 154.8 230.5 155.08C231.22 155.36 232.01 155.5 232.87 155.5C233.87 155.5 234.77 155.29 235.57 154.87C236.39 154.45 237.14 153.84 237.82 153.04L241.6 156.46C240.58 157.72 239.3 158.7 237.76 159.4C236.24 160.08 234.51 160.42 232.57 160.42ZM239.877 160L249.147 139H254.997L264.297 160H258.117L250.857 141.91H253.197L245.937 160H239.877ZM244.947 155.92L246.477 151.54H256.737L258.267 155.92H244.947ZM264.481 160V139H274.081C276.001 139 277.651 139.31 279.031 139.93C280.431 140.55 281.511 141.45 282.271 142.63C283.031 143.79 283.411 145.17 283.411 146.77C283.411 148.35 283.031 149.72 282.271 150.88C281.511 152.02 280.431 152.9 279.031 153.52C277.651 154.12 276.001 154.42 274.081 154.42H267.781L270.421 151.93V160H264.481ZM277.471 160L272.251 152.35H278.581L283.831 160H277.471ZM270.421 152.56L267.781 149.83H273.721C274.961 149.83 275.881 149.56 276.481 149.02C277.101 148.48 277.411 147.73 277.411 146.77C277.411 145.79 277.101 145.03 276.481 144.49C275.881 143.95 274.961 143.68 273.721 143.68H267.781L270.421 140.95V152.56Z"
    fill="#F6BA46" />
  <path
    d="M294.78 166.09C293.22 166.09 291.73 165.91 290.31 165.55C288.91 165.19 287.71 164.66 286.71 163.96L288.78 159.97C289.46 160.51 290.3 160.93 291.3 161.23C292.32 161.55 293.31 161.71 294.27 161.71C295.81 161.71 296.92 161.37 297.6 160.69C298.28 160.03 298.62 159.06 298.62 157.78V155.86L298.92 151.3L298.89 146.71V143.74H304.32V157.03C304.32 160.11 303.49 162.39 301.83 163.87C300.17 165.35 297.82 166.09 294.78 166.09ZM293.79 159.16C292.35 159.16 291.02 158.84 289.8 158.2C288.6 157.54 287.63 156.63 286.89 155.47C286.17 154.29 285.81 152.9 285.81 151.3C285.81 149.7 286.17 148.32 286.89 147.16C287.63 145.98 288.6 145.07 289.8 144.43C291.02 143.79 292.35 143.47 293.79 143.47C295.17 143.47 296.35 143.75 297.33 144.31C298.31 144.85 299.05 145.7 299.55 146.86C300.07 148.02 300.33 149.5 300.33 151.3C300.33 153.1 300.07 154.58 299.55 155.74C299.05 156.9 298.31 157.76 297.33 158.32C296.35 158.88 295.17 159.16 293.79 159.16ZM295.14 154.63C295.82 154.63 296.42 154.49 296.94 154.21C297.48 153.93 297.9 153.54 298.2 153.04C298.52 152.54 298.68 151.96 298.68 151.3C298.68 150.64 298.52 150.06 298.2 149.56C297.9 149.06 297.48 148.68 296.94 148.42C296.42 148.14 295.82 148 295.14 148C294.46 148 293.85 148.14 293.31 148.42C292.77 148.68 292.34 149.06 292.02 149.56C291.72 150.06 291.57 150.64 291.57 151.3C291.57 151.96 291.72 152.54 292.02 153.04C292.34 153.54 292.77 153.93 293.31 154.21C293.85 154.49 294.46 154.63 295.14 154.63ZM314.642 160.27C312.862 160.27 311.282 159.91 309.902 159.19C308.522 158.47 307.432 157.48 306.632 156.22C305.852 154.94 305.462 153.48 305.462 151.84C305.462 150.2 305.852 148.75 306.632 147.49C307.432 146.23 308.522 145.25 309.902 144.55C311.282 143.83 312.862 143.47 314.642 143.47C316.422 143.47 318.002 143.83 319.382 144.55C320.782 145.25 321.872 146.23 322.652 147.49C323.432 148.75 323.822 150.2 323.822 151.84C323.822 153.48 323.432 154.94 322.652 156.22C321.872 157.48 320.782 158.47 319.382 159.19C318.002 159.91 316.422 160.27 314.642 160.27ZM314.642 155.74C315.302 155.74 315.882 155.59 316.382 155.29C316.902 154.99 317.312 154.55 317.612 153.97C317.912 153.37 318.062 152.66 318.062 151.84C318.062 151.02 317.912 150.33 317.612 149.77C317.312 149.19 316.902 148.75 316.382 148.45C315.882 148.15 315.302 148 314.642 148C314.002 148 313.422 148.15 312.902 148.45C312.402 148.75 311.992 149.19 311.672 149.77C311.372 150.33 311.222 151.02 311.222 151.84C311.222 152.66 311.372 153.37 311.672 153.97C311.992 154.55 312.402 154.99 312.902 155.29C313.422 155.59 314.002 155.74 314.642 155.74Z"
    fill="#DE674F" />
  <path
    d="M312.919 29.5321C312.919 30.666 312.565 31.7219 311.96 32.5884C311.798 32.8212 311.55 32.98 311.271 33.0299C310.991 33.0797 310.704 33.0165 310.471 32.8543C310.238 32.692 310.079 32.4438 310.029 32.1645C309.979 31.8851 310.043 31.5974 310.205 31.3646C310.58 30.8273 310.781 30.1874 310.779 29.5321C310.779 28.8485 310.568 28.2184 310.205 27.6996C310.121 27.5845 310.061 27.4539 310.028 27.3154C309.996 27.1769 309.991 27.0332 310.015 26.8929C310.038 26.7525 310.089 26.6183 310.166 26.498C310.242 26.3777 310.341 26.2738 310.458 26.1924C310.574 26.111 310.706 26.0536 310.845 26.0238C310.984 25.9939 311.128 25.9922 311.268 26.0186C311.408 26.0449 311.541 26.099 311.66 26.1775C311.778 26.256 311.88 26.3574 311.959 26.4758C312.585 27.372 312.92 28.439 312.919 29.5321Z"
    fill="white" />
  <path
    d="M318.756 30.0712C318.756 32.123 318.033 34.009 316.827 35.4843C316.739 35.5954 316.63 35.688 316.505 35.7565C316.381 35.825 316.245 35.8681 316.104 35.8834C315.962 35.8986 315.82 35.8856 315.684 35.8452C315.548 35.8048 315.421 35.7377 315.311 35.6479C315.202 35.5581 315.111 35.4473 315.044 35.3221C314.978 35.1968 314.937 35.0596 314.923 34.9183C314.91 34.777 314.926 34.6346 314.968 34.4992C315.011 34.3639 315.08 34.2384 315.171 34.1299C316.108 32.9853 316.619 31.5507 316.616 30.0712C316.616 28.5308 316.075 27.1208 315.172 26.0147C315.082 25.906 315.014 25.7806 314.972 25.6455C314.93 25.5104 314.916 25.3685 314.929 25.2278C314.943 25.087 314.984 24.9504 315.051 24.8257C315.117 24.7011 315.208 24.5909 315.317 24.5014C315.427 24.412 315.553 24.3452 315.689 24.3048C315.824 24.2645 315.966 24.2513 316.107 24.2662C316.247 24.2811 316.383 24.3237 316.507 24.3915C316.632 24.4593 316.741 24.5511 316.829 24.6614C318.078 26.1877 318.758 28.0994 318.756 30.0712Z"
    fill="white" />
  <path
    d="M324.517 30.0834C324.521 32.9175 323.498 35.6571 321.638 37.7953C321.45 38.004 321.188 38.1306 320.908 38.148C320.628 38.1653 320.353 38.0719 320.141 37.888C319.929 37.7041 319.798 37.4443 319.776 37.1647C319.754 36.885 319.842 36.6078 320.022 36.3929C321.545 34.6437 322.381 32.4021 322.377 30.0834C322.382 27.7632 321.543 25.5203 320.018 23.7717C319.832 23.5575 319.739 23.2782 319.759 22.9951C319.778 22.712 319.91 22.4484 320.124 22.2623C320.338 22.0762 320.618 21.9828 320.901 22.0026C321.184 22.0225 321.447 22.154 321.634 22.3682C323.496 24.5067 324.52 27.2476 324.517 30.0834Z"
    fill="white" />
</svg>