<svg width="350" height="80" viewBox="0 0 350 80" fill="none" xmlns="http://www.w3.org/2000/svg">
<rect width="350" height="80" rx="20" fill="#C94A30"/>
<path d="M229.64 43.29V39.63H234.2C234.78 39.63 235.31 39.51 235.79 39.27C236.27 39.03 236.65 38.68 236.93 38.22C237.21 37.76 237.35 37.2 237.35 36.54C237.35 35.9 237.21 35.35 236.93 34.89C236.65 34.43 236.27 34.08 235.79 33.84C235.31 33.6 234.78 33.48 234.2 33.48H229.64V29.82H234.89C236.23 29.82 237.44 30.09 238.52 30.63C239.6 31.17 240.45 31.95 241.07 32.97C241.71 33.97 242.03 35.16 242.03 36.54C242.03 37.92 241.71 39.12 241.07 40.14C240.45 41.14 239.6 41.92 238.52 42.48C237.44 43.02 236.23 43.29 234.89 43.29H229.64ZM226.04 51V29.82H230.75V51H226.04ZM249.933 51.3C248.593 51.3 247.393 50.97 246.333 50.31C245.293 49.65 244.463 48.75 243.843 47.61C243.243 46.47 242.943 45.17 242.943 43.71C242.943 42.25 243.243 40.95 243.843 39.81C244.463 38.67 245.293 37.77 246.333 37.11C247.393 36.45 248.593 36.12 249.933 36.12C250.913 36.12 251.793 36.31 252.573 36.69C253.373 37.07 254.023 37.6 254.523 38.28C255.023 38.94 255.303 39.7 255.363 40.56V46.86C255.303 47.72 255.023 48.49 254.523 49.17C254.043 49.83 253.403 50.35 252.603 50.73C251.803 51.11 250.913 51.3 249.933 51.3ZM250.863 47.16C251.843 47.16 252.633 46.84 253.233 46.2C253.833 45.54 254.133 44.71 254.133 43.71C254.133 43.03 253.993 42.43 253.713 41.91C253.453 41.39 253.073 40.99 252.573 40.71C252.093 40.41 251.533 40.26 250.893 40.26C250.253 40.26 249.683 40.41 249.183 40.71C248.703 40.99 248.313 41.39 248.013 41.91C247.733 42.43 247.593 43.03 247.593 43.71C247.593 44.37 247.733 44.96 248.013 45.48C248.293 46 248.683 46.41 249.183 46.71C249.683 47.01 250.243 47.16 250.863 47.16ZM253.953 51V47.07L254.643 43.53L253.953 39.99V36.42H258.453V51H253.953ZM266.184 51.06L260.184 36.42H265.134L268.944 48.03H267.114L271.014 36.42H275.964L269.724 51.06H266.184ZM262.434 57.15L266.814 47.7L269.724 51.06L267.144 57.15H262.434ZM281.73 43.29V39.63H286.29C286.87 39.63 287.4 39.51 287.88 39.27C288.36 39.03 288.74 38.68 289.02 38.22C289.3 37.76 289.44 37.2 289.44 36.54C289.44 35.9 289.3 35.35 289.02 34.89C288.74 34.43 288.36 34.08 287.88 33.84C287.4 33.6 286.87 33.48 286.29 33.48H281.73V29.82H286.98C288.32 29.82 289.53 30.09 290.61 30.63C291.69 31.17 292.54 31.95 293.16 32.97C293.8 33.97 294.12 35.16 294.12 36.54C294.12 37.92 293.8 39.12 293.16 40.14C292.54 41.14 291.69 41.92 290.61 42.48C289.53 43.02 288.32 43.29 286.98 43.29H281.73ZM278.13 51V29.82H282.84V51H278.13ZM302.022 51.3C300.683 51.3 299.483 50.97 298.423 50.31C297.383 49.65 296.553 48.75 295.933 47.61C295.333 46.47 295.033 45.17 295.033 43.71C295.033 42.25 295.333 40.95 295.933 39.81C296.553 38.67 297.383 37.77 298.423 37.11C299.483 36.45 300.683 36.12 302.022 36.12C303.003 36.12 303.883 36.31 304.663 36.69C305.463 37.07 306.113 37.6 306.613 38.28C307.113 38.94 307.393 39.7 307.453 40.56V46.86C307.393 47.72 307.113 48.49 306.613 49.17C306.133 49.83 305.493 50.35 304.693 50.73C303.893 51.11 303.003 51.3 302.022 51.3ZM302.953 47.16C303.933 47.16 304.723 46.84 305.323 46.2C305.923 45.54 306.223 44.71 306.223 43.71C306.223 43.03 306.083 42.43 305.803 41.91C305.543 41.39 305.163 40.99 304.663 40.71C304.183 40.41 303.623 40.26 302.983 40.26C302.343 40.26 301.773 40.41 301.273 40.71C300.793 40.99 300.403 41.39 300.103 41.91C299.823 42.43 299.683 43.03 299.683 43.71C299.683 44.37 299.823 44.96 300.103 45.48C300.383 46 300.773 46.41 301.273 46.71C301.773 47.01 302.333 47.16 302.953 47.16ZM306.043 51V47.07L306.733 43.53L306.043 39.99V36.42H310.543V51H306.043ZM313.774 51V29.22H318.364V51H313.774Z" fill="#FFEBE7"/>
<g clip-path="url(#clip0_63_326)">
<path fill-rule="evenodd" clip-rule="evenodd" d="M66.125 19.1667C71.9688 19.1667 76.6229 23.3542 77.675 28.6396C81.5896 30.6479 84.0021 35.05 83.1896 39.6958L83.0938 40.1771L82.9938 40.6292C82.3958 43.3192 80.9257 45.7363 78.812 47.5045C76.6984 49.2726 74.0596 50.2928 71.3063 50.4062L70.7917 50.4167H67.7646L66.6875 57.3104C66.5429 58.2342 66.0917 59.0825 65.4066 59.7188C64.7216 60.3552 63.8423 60.7426 62.9104 60.8187L62.5708 60.8333H58.4542C57.4021 60.8331 56.3891 60.435 55.6182 59.719C54.8474 59.003 54.3757 58.0221 54.2979 56.9729L54.2875 56.6667H50.7667C50.1907 56.6666 49.6211 56.5471 49.0937 56.3158C48.5662 56.0845 48.0925 55.7463 47.7023 55.3227C47.3122 54.8991 47.0141 54.3991 46.8269 53.8545C46.6396 53.3099 46.5674 52.7323 46.6146 52.1583L46.65 51.8562L50.9333 24.4521C51.1536 23.0417 51.8499 21.7492 52.9066 20.7896C53.9633 19.8299 55.3167 19.2609 56.7417 19.1771L57.1083 19.1667H66.1271H66.125ZM77.5583 33.7229L77.5396 33.7979C76.7963 36.7598 75.0851 39.3886 72.6775 41.2671C70.2698 43.1456 67.3038 44.1661 64.25 44.1667H60.4021L58.7771 54.5833H58.7813L58.4542 56.6667H62.5708L63.6479 49.7729C63.8014 48.7913 64.3006 47.8969 65.0554 47.2509C65.8103 46.605 66.7711 46.25 67.7646 46.25H70.7917C72.6874 46.2497 74.5263 45.603 76.005 44.4167C77.4836 43.2305 78.5136 41.5755 78.925 39.725L79.0271 39.2729C79.2459 38.2979 79.2266 37.2845 78.971 36.3184C78.7153 35.3524 78.2308 34.4621 77.5583 33.7229V33.7229ZM66.1271 23.3333H57.1042C56.6477 23.3336 56.2039 23.4837 55.841 23.7608C55.4782 24.0378 55.2164 24.4263 55.0958 24.8667L55.0479 25.0958L50.7667 52.5H54.8833L56.2854 43.5229C56.4301 42.5988 56.8816 41.7503 57.5671 41.1139C58.2526 40.4775 59.1323 40.0903 60.0646 40.0146L60.4021 40H64.2479C68.6229 40 72.4354 37.025 73.4979 32.7854C73.7715 31.6963 73.8003 30.5601 73.5823 29.4585C73.3644 28.3569 72.905 27.3173 72.2372 26.4145C71.5694 25.5117 70.7099 24.768 69.7204 24.2371C68.7309 23.7061 67.6361 23.401 66.5146 23.3437L66.125 23.3333H66.1271Z" fill="#FFEBE7"/>
</g>
<defs>
<clipPath id="clip0_63_326">
<rect width="50" height="50" fill="white" transform="translate(40 15)"/>
</clipPath>
</defs>
</svg>
