<svg width="50" height="50" viewBox="0 0 50 50" fill="none" xmlns="http://www.w3.org/2000/svg">
  <g clip-path="url(#clip0_63_329)">
    <path fill-rule="evenodd" clip-rule="evenodd"
      d="M26.125 4.16666C31.9688 4.16666 36.6229 8.35416 37.675 13.6396C41.5896 15.6479 44.0021 20.05 43.1896 24.6958L43.0938 25.1771L42.9938 25.6292C42.3958 28.3192 40.9257 30.7363 38.812 32.5045C36.6984 34.2726 34.0596 35.2928 31.3063 35.4062L30.7917 35.4167H27.7646L26.6875 42.3104C26.5429 43.2342 26.0917 44.0825 25.4066 44.7188C24.7216 45.3552 23.8423 45.7426 22.9104 45.8187L22.5708 45.8333H18.4542C17.4021 45.8331 16.3891 45.435 15.6182 44.719C14.8474 44.0031 14.3757 43.0221 14.2979 41.9729L14.2875 41.6667H10.7667C10.1907 41.6666 9.62109 41.5471 9.09367 41.3158C8.56624 41.0845 8.0925 40.7463 7.70234 40.3227C7.31218 39.8991 7.01408 39.3991 6.82686 38.8545C6.63964 38.3099 6.56736 37.7323 6.61459 37.1583L6.65 36.8562L10.9333 9.45207C11.1536 8.04172 11.8499 6.74924 12.9066 5.78957C13.9633 4.8299 15.3167 4.26086 16.7417 4.17707L17.1083 4.16666H26.1271H26.125ZM37.5583 18.7229L37.5396 18.7979C36.7963 21.7598 35.0851 24.3886 32.6775 26.2671C30.2698 28.1456 27.3038 29.1661 24.25 29.1667H20.4021L18.7771 39.5833H18.7813L18.4542 41.6667H22.5708L23.6479 34.7729C23.8014 33.7913 24.3006 32.8969 25.0554 32.2509C25.8103 31.605 26.7711 31.25 27.7646 31.25H30.7917C32.6874 31.2497 34.5263 30.603 36.005 29.4167C37.4836 28.2305 38.5136 26.5755 38.925 24.725L39.0271 24.2729C39.2459 23.2979 39.2266 22.2845 38.971 21.3184C38.7153 20.3524 38.2308 19.4621 37.5583 18.7229ZM26.1271 8.33332H17.1042C16.6477 8.33356 16.2039 8.48374 15.841 8.76077C15.4782 9.0378 15.2164 9.42634 15.0958 9.86666L15.0479 10.0958L10.7667 37.5H14.8833L16.2854 28.5229C16.4301 27.5988 16.8816 26.7503 17.5671 26.1139C18.2526 25.4775 19.1323 25.0903 20.0646 25.0146L20.4021 25H24.2479C28.6229 25 32.4354 22.025 33.4979 17.7854C33.7715 16.6963 33.8003 15.5601 33.5823 14.4585C33.3644 13.3569 32.905 12.3173 32.2372 11.4145C31.5694 10.5117 30.7099 9.76804 29.7204 9.23707C28.7309 8.70611 27.6361 8.40102 26.5146 8.34374L26.125 8.33332H26.1271Z"
      fill="#FFEBE7" />
  </g>
  <defs>
    <clipPath id="clip0_63_329">
      <rect width="50" height="50" fill="white" />
    </clipPath>
  </defs>
</svg>