<svg width="350" height="80" viewBox="0 0 350 80" fill="none" xmlns="http://www.w3.org/2000/svg">
<rect width="350" height="80" rx="20" fill="#C94A30"/>
<path d="M245.04 51V29.82H249.75V51H245.04ZM258.15 51V29.82H262.89V51H258.15ZM247.86 42.15V38.07H259.71V42.15H247.86ZM266.954 51V29.82H271.664V51H266.954ZM270.554 51V46.92H282.164V51H270.554ZM270.554 42.15V38.22H281.114V42.15H270.554ZM270.554 33.87V29.82H282.014V33.87H270.554ZM285.411 51V29.82H290.121V51H285.411ZM289.041 51V46.86H299.511V51H289.041ZM305.828 43.29V39.63H310.388C310.968 39.63 311.498 39.51 311.978 39.27C312.458 39.03 312.838 38.68 313.118 38.22C313.398 37.76 313.538 37.2 313.538 36.54C313.538 35.9 313.398 35.35 313.118 34.89C312.838 34.43 312.458 34.08 311.978 33.84C311.498 33.6 310.968 33.48 310.388 33.48H305.828V29.82H311.078C312.418 29.82 313.628 30.09 314.708 30.63C315.788 31.17 316.638 31.95 317.258 32.97C317.898 33.97 318.218 35.16 318.218 36.54C318.218 37.92 317.898 39.12 317.258 40.14C316.638 41.14 315.788 41.92 314.708 42.48C313.628 43.02 312.418 43.29 311.078 43.29H305.828ZM302.228 51V29.82H306.938V51H302.228Z" fill="#FFEBE7"/>
<path d="M64.8958 52.5C65.625 52.5 66.2417 52.2479 66.7458 51.7437C67.2486 51.241 67.5 50.625 67.5 49.8958C67.5 49.1667 67.2486 48.5507 66.7458 48.0479C66.2417 47.5437 65.625 47.2917 64.8958 47.2917C64.1667 47.2917 63.55 47.5437 63.0458 48.0479C62.5431 48.5507 62.2917 49.1667 62.2917 49.8958C62.2917 50.625 62.5431 51.241 63.0458 51.7437C63.55 52.2479 64.1667 52.5 64.8958 52.5ZM63.0208 44.4792H66.875C66.875 43.3333 67.0056 42.4305 67.2667 41.7708C67.5264 41.1111 68.2639 40.2083 69.4792 39.0625C70.3819 38.1597 71.0938 37.3 71.6146 36.4833C72.1354 35.668 72.3958 34.6875 72.3958 33.5417C72.3958 31.5972 71.684 30.1042 70.2604 29.0625C68.8368 28.0208 67.1528 27.5 65.2083 27.5C63.2292 27.5 61.6236 28.0208 60.3917 29.0625C59.1583 30.1042 58.2986 31.3542 57.8125 32.8125L61.25 34.1667C61.4236 33.5417 61.8146 32.8646 62.4229 32.1354C63.0299 31.4062 63.9583 31.0417 65.2083 31.0417C66.3194 31.0417 67.1528 31.3451 67.7083 31.9521C68.2639 32.5604 68.5417 33.2292 68.5417 33.9583C68.5417 34.6528 68.3333 35.3035 67.9167 35.9104C67.5 36.5187 66.9792 37.0833 66.3542 37.6042C64.8264 38.9583 63.8889 39.9826 63.5417 40.6771C63.1944 41.3715 63.0208 42.6389 63.0208 44.4792ZM65 60.8333C62.1181 60.8333 59.4097 60.2861 56.875 59.1917C54.3403 58.0986 52.1354 56.6146 50.2604 54.7396C48.3854 52.8646 46.9014 50.6597 45.8083 48.125C44.7139 45.5903 44.1667 42.8819 44.1667 40C44.1667 37.118 44.7139 34.4097 45.8083 31.875C46.9014 29.3403 48.3854 27.1354 50.2604 25.2604C52.1354 23.3854 54.3403 21.9007 56.875 20.8062C59.4097 19.7132 62.1181 19.1667 65 19.1667C67.8819 19.1667 70.5903 19.7132 73.125 20.8062C75.6597 21.9007 77.8646 23.3854 79.7396 25.2604C81.6146 27.1354 83.0986 29.3403 84.1917 31.875C85.2861 34.4097 85.8333 37.118 85.8333 40C85.8333 42.8819 85.2861 45.5903 84.1917 48.125C83.0986 50.6597 81.6146 52.8646 79.7396 54.7396C77.8646 56.6146 75.6597 58.0986 73.125 59.1917C70.5903 60.2861 67.8819 60.8333 65 60.8333Z" fill="#FFEBE7"/>
</svg>
