<svg width="50" height="50" viewBox="0 0 50 50" fill="none" xmlns="http://www.w3.org/2000/svg">
  <path
    d="M24.8958 37.5C25.625 37.5 26.2417 37.2479 26.7458 36.7437C27.2486 36.241 27.5 35.625 27.5 34.8958C27.5 34.1667 27.2486 33.5507 26.7458 33.0479C26.2417 32.5437 25.625 32.2917 24.8958 32.2917C24.1667 32.2917 23.55 32.5437 23.0458 33.0479C22.5431 33.5507 22.2917 34.1667 22.2917 34.8958C22.2917 35.625 22.5431 36.241 23.0458 36.7437C23.55 37.2479 24.1667 37.5 24.8958 37.5ZM23.0208 29.4792H26.875C26.875 28.3333 27.0056 27.4305 27.2667 26.7708C27.5264 26.1111 28.2639 25.2083 29.4792 24.0625C30.3819 23.1597 31.0938 22.3 31.6146 21.4833C32.1354 20.668 32.3958 19.6875 32.3958 18.5417C32.3958 16.5972 31.684 15.1042 30.2604 14.0625C28.8368 13.0208 27.1528 12.5 25.2083 12.5C23.2292 12.5 21.6236 13.0208 20.3917 14.0625C19.1583 15.1042 18.2986 16.3542 17.8125 17.8125L21.25 19.1667C21.4236 18.5417 21.8146 17.8646 22.4229 17.1354C23.0299 16.4062 23.9583 16.0417 25.2083 16.0417C26.3194 16.0417 27.1528 16.3451 27.7083 16.9521C28.2639 17.5604 28.5417 18.2292 28.5417 18.9583C28.5417 19.6528 28.3333 20.3035 27.9167 20.9104C27.5 21.5187 26.9792 22.0833 26.3542 22.6042C24.8264 23.9583 23.8889 24.9826 23.5417 25.6771C23.1944 26.3715 23.0208 27.6389 23.0208 29.4792ZM25 45.8333C22.1181 45.8333 19.4097 45.2861 16.875 44.1917C14.3403 43.0986 12.1354 41.6146 10.2604 39.7396C8.38542 37.8646 6.90139 35.6597 5.80833 33.125C4.71389 30.5903 4.16666 27.8819 4.16666 25C4.16666 22.118 4.71389 19.4097 5.80833 16.875C6.90139 14.3403 8.38542 12.1354 10.2604 10.2604C12.1354 8.38541 14.3403 6.90068 16.875 5.80624C19.4097 4.71318 22.1181 4.16666 25 4.16666C27.8819 4.16666 30.5903 4.71318 33.125 5.80624C35.6597 6.90068 37.8646 8.38541 39.7396 10.2604C41.6146 12.1354 43.0986 14.3403 44.1917 16.875C45.2861 19.4097 45.8333 22.118 45.8333 25C45.8333 27.8819 45.2861 30.5903 44.1917 33.125C43.0986 35.6597 41.6146 37.8646 39.7396 39.7396C37.8646 41.6146 35.6597 43.0986 33.125 44.1917C30.5903 45.2861 27.8819 45.8333 25 45.8333Z"
    fill="#FFEBE7" />
</svg>