<svg width="100" height="100" viewBox="0 0 100 100" fill="none" xmlns="http://www.w3.org/2000/svg">
<circle cx="50" cy="50" r="50" fill="white"/>
<path d="M50 86C37.5 86 26.45 79.6 20 70C20.15 60 40 54.5 50 54.5C60 54.5 79.85 60 80 70C76.6944 74.922 72.2293 78.9558 66.9978 81.7459C61.7663 84.536 55.929 85.9969 50 86ZM50 15C53.9782 15 57.7936 16.5804 60.6066 19.3934C63.4197 22.2064 65 26.0218 65 30C65 33.9782 63.4197 37.7936 60.6066 40.6066C57.7936 43.4197 53.9782 45 50 45C46.0218 45 42.2064 43.4197 39.3934 40.6066C36.5803 37.7936 35 33.9782 35 30C35 26.0218 36.5803 22.2064 39.3934 19.3934C42.2064 16.5804 46.0218 15 50 15ZM50 0C43.4339 0 36.9321 1.29329 30.8658 3.80602C24.7995 6.31876 19.2876 10.0017 14.6447 14.6447C5.26784 24.0215 0 36.7392 0 50C0 63.2608 5.26784 75.9785 14.6447 85.3553C19.2876 89.9983 24.7995 93.6812 30.8658 96.194C36.9321 98.7067 43.4339 100 50 100C63.2608 100 75.9785 94.7322 85.3553 85.3553C94.7322 75.9785 100 63.2608 100 50C100 22.35 77.5 0 50 0Z" fill="#484848"/>
<path fill-rule="evenodd" clip-rule="evenodd" d="M86.6667 100C94.0305 100 100 94.0305 100 86.6667C100 79.3029 94.0305 73.3333 86.6667 73.3333C79.3029 73.3333 73.3333 79.3029 73.3333 86.6667C73.3333 94.0305 79.3029 100 86.6667 100ZM90.0945 86.0674L90.5658 86.5388L86.3232 90.7814L87.2665 91.7241L91.9798 87.0101C92.1048 86.8851 92.175 86.7155 92.175 86.5388C92.175 86.362 92.1048 86.1924 91.9798 86.0674L88.2085 82.2961L80.6665 89.8388V92.6674H83.4945L90.0945 86.0674ZM92.9232 82.2961L91.0372 80.4108C90.9122 80.2858 90.7426 80.2156 90.5658 80.2156C90.3891 80.2156 90.2195 80.2858 90.0945 80.4108L89.1518 81.3534L91.9798 84.1821L92.9232 83.2388C93.0482 83.1137 93.1184 82.9442 93.1184 82.7674C93.1184 82.5906 93.0482 82.4211 92.9232 82.2961Z" fill="#B0B0B0"/>
</svg>
