<svg width="50" height="50" viewBox="0 0 50 50" fill="none" xmlns="http://www.w3.org/2000/svg">
  <g clip-path="url(#clip0_63_287)">
    <path
      d="M27.695 4.56286e-06C28.43 4.56286e-06 29.0875 0.457505 29.335 1.1425L31.1 6.035C31.7325 6.1925 32.275 6.35 32.735 6.515C33.2375 6.695 33.885 6.9675 34.685 7.34L38.795 5.165C39.1305 4.98727 39.5145 4.92312 39.8896 4.98217C40.2646 5.04121 40.6104 5.22028 40.875 5.49251L44.49 9.23C44.97 9.7275 45.105 10.455 44.835 11.09L42.9075 15.6075C43.2275 16.195 43.4825 16.6975 43.6775 17.1175C43.8875 17.575 44.1475 18.205 44.4575 19.0175L48.95 20.9425C49.625 21.23 50.0425 21.905 49.9975 22.6275L49.6675 27.815C49.645 28.152 49.5239 28.475 49.3195 28.7439C49.1151 29.0127 48.8362 29.2157 48.5175 29.3275L44.2625 30.84C44.14 31.4275 44.0125 31.93 43.8775 32.355C43.6598 33.0114 43.4111 33.6571 43.1325 34.29L45.27 39.015C45.4209 39.347 45.4615 39.7186 45.3859 40.0753C45.3103 40.432 45.1225 40.7552 44.85 40.9975L40.785 44.6275C40.5173 44.8656 40.1832 45.0161 39.8276 45.059C39.4719 45.1019 39.1116 45.0351 38.795 44.8675L34.605 42.6475C33.9495 42.9946 33.2732 43.301 32.58 43.565L30.75 44.25L29.125 48.75C29.0046 49.0796 28.7874 49.365 28.5018 49.5689C28.2163 49.7728 27.8758 49.8856 27.525 49.8925L22.775 50C22.4149 50.0095 22.0607 49.9071 21.7612 49.707C21.4617 49.5068 21.2316 49.2188 21.1025 48.8825L19.1875 43.815C18.5341 43.5917 17.8872 43.3499 17.2475 43.09C16.7243 42.8635 16.209 42.6192 15.7025 42.3575L10.9525 44.3875C10.6395 44.521 10.2945 44.5607 9.95936 44.5017C9.62424 44.4426 9.31352 44.2874 9.065 44.055L5.55 40.7575C5.28831 40.5131 5.11008 40.1925 5.04054 39.8413C4.971 39.49 5.01367 39.1257 5.1625 38.8L7.205 34.35C6.93336 33.8229 6.68152 33.2859 6.45 32.74C6.17976 32.0718 5.92964 31.3957 5.7 30.7125L1.225 29.35C0.861255 29.2401 0.543989 29.0131 0.322478 28.7043C0.100966 28.3956 -0.0123938 28.0223 3.14548e-06 27.6425L0.175003 22.84C0.18746 22.5267 0.285345 22.2227 0.458073 21.9609C0.630801 21.6992 0.871799 21.4897 1.155 21.355L5.85 19.1C6.0675 18.3025 6.2575 17.6825 6.425 17.23C6.66086 16.6256 6.92277 16.0317 7.21 15.45L5.175 11.15C5.02057 10.8235 4.97367 10.4564 5.04105 10.1015C5.10843 9.74659 5.28663 9.42222 5.55 9.175L9.06 5.86C9.30606 5.62794 9.61393 5.47191 9.94657 5.41071C10.2792 5.3495 10.6225 5.38572 10.935 5.51501L15.68 7.475C16.205 7.125 16.68 6.8425 17.11 6.615C17.6225 6.3425 18.3075 6.0575 19.17 5.75L20.82 1.1475C20.942 0.810676 21.165 0.519708 21.4585 0.314332C21.752 0.108957 22.1018 -0.000815627 22.46 4.56286e-06H27.695ZM25.06 17.5475C20.8925 17.5475 17.515 20.885 17.515 25.005C17.515 29.125 20.8925 32.465 25.06 32.465C29.225 32.465 32.6025 29.125 32.6025 25.005C32.6025 20.885 29.2275 17.5475 25.06 17.5475Z"
      fill="#FFF5E7" />
  </g>
  <defs>
    <clipPath id="clip0_63_287">
      <rect width="50" height="50" fill="white" />
    </clipPath>
  </defs>
</svg>