<svg width="350" height="80" viewBox="0 0 350 80" fill="none" xmlns="http://www.w3.org/2000/svg">
  <rect width="350" height="80" rx="20" fill="#F48F00" />
  <path
    d="M200.4 51.33C198.66 51.33 197.16 51.05 195.9 50.49C194.66 49.91 193.52 49.04 192.48 47.88L195.54 44.85C196.22 45.63 196.97 46.24 197.79 46.68C198.63 47.1 199.6 47.31 200.7 47.31C201.7 47.31 202.47 47.13 203.01 46.77C203.57 46.41 203.85 45.91 203.85 45.27C203.85 44.69 203.67 44.22 203.31 43.86C202.95 43.5 202.47 43.19 201.87 42.93C201.29 42.67 200.64 42.42 199.92 42.18C199.22 41.94 198.52 41.67 197.82 41.37C197.12 41.05 196.47 40.66 195.87 40.2C195.29 39.72 194.82 39.13 194.46 38.43C194.1 37.71 193.92 36.81 193.92 35.73C193.92 34.43 194.23 33.31 194.85 32.37C195.49 31.43 196.37 30.72 197.49 30.24C198.61 29.74 199.9 29.49 201.36 29.49C202.84 29.49 204.19 29.75 205.41 30.27C206.65 30.79 207.67 31.5 208.47 32.4L205.41 35.43C204.77 34.77 204.12 34.28 203.46 33.96C202.82 33.64 202.09 33.48 201.27 33.48C200.45 33.48 199.8 33.64 199.32 33.96C198.84 34.26 198.6 34.7 198.6 35.28C198.6 35.82 198.78 36.26 199.14 36.6C199.5 36.92 199.97 37.2 200.55 37.44C201.15 37.68 201.8 37.92 202.5 38.16C203.22 38.4 203.93 38.68 204.63 39C205.33 39.32 205.97 39.73 206.55 40.23C207.15 40.71 207.63 41.33 207.99 42.09C208.35 42.83 208.53 43.75 208.53 44.85C208.53 46.87 207.81 48.46 206.37 49.62C204.93 50.76 202.94 51.33 200.4 51.33ZM211.53 51V29.82H216.24V51H211.53ZM215.13 51V46.92H226.74V51H215.13ZM215.13 42.15V38.22H225.69V42.15H215.13ZM215.13 33.87V29.82H226.59V33.87H215.13ZM234.533 51V30.12H239.243V51H234.533ZM227.903 33.93V29.82H245.873V33.93H227.903ZM252.96 51V30.12H257.67V51H252.96ZM246.33 33.93V29.82H264.3V33.93H246.33ZM266.931 51V29.82H271.641V51H266.931ZM275.72 51V29.82H279.02L280.43 34.05V51H275.72ZM290.33 51L277.85 35.01L279.02 29.82L291.5 45.81L290.33 51ZM290.33 51L289.07 46.77V29.82H293.78V51H290.33ZM307.858 51.33C306.318 51.33 304.868 51.05 303.508 50.49C302.168 49.93 300.998 49.16 299.998 48.18C298.998 47.18 298.208 46.02 297.628 44.7C297.068 43.36 296.788 41.92 296.788 40.38C296.788 38.84 297.078 37.41 297.658 36.09C298.238 34.77 299.038 33.62 300.058 32.64C301.098 31.64 302.308 30.87 303.688 30.33C305.068 29.77 306.548 29.49 308.128 29.49C309.948 29.49 311.598 29.82 313.078 30.48C314.578 31.14 315.818 32.05 316.798 33.21L313.588 36.42C312.908 35.54 312.108 34.88 311.188 34.44C310.268 34 309.228 33.78 308.068 33.78C306.828 33.78 305.718 34.06 304.738 34.62C303.758 35.16 302.988 35.93 302.428 36.93C301.888 37.91 301.618 39.06 301.618 40.38C301.618 41.7 301.888 42.86 302.428 43.86C302.968 44.86 303.708 45.64 304.648 46.2C305.588 46.76 306.668 47.04 307.888 47.04C309.128 47.04 310.178 46.81 311.038 46.35C311.918 45.87 312.588 45.19 313.048 44.31C313.528 43.41 313.768 42.32 313.768 41.04L316.888 43.14L307.438 42.99V39H318.568V39.69C318.568 42.23 318.108 44.37 317.188 46.11C316.288 47.83 315.028 49.13 313.408 50.01C311.808 50.89 309.958 51.33 307.858 51.33Z"
    fill="#FFF5E7" />
  <g clip-path="url(#clip0_122_115)">
    <path
      d="M67.695 15C68.43 15 69.0875 15.4575 69.335 16.1425L71.1 21.035C71.7325 21.1925 72.275 21.35 72.735 21.515C73.2375 21.695 73.885 21.9675 74.685 22.34L78.795 20.165C79.1305 19.9873 79.5145 19.9231 79.8896 19.9822C80.2646 20.0412 80.6104 20.2203 80.875 20.4925L84.49 24.23C84.97 24.7275 85.105 25.455 84.835 26.09L82.9075 30.6075C83.2275 31.195 83.4825 31.6975 83.6775 32.1175C83.8875 32.575 84.1475 33.205 84.4575 34.0175L88.95 35.9425C89.625 36.23 90.0425 36.905 89.9975 37.6275L89.6675 42.815C89.645 43.152 89.5239 43.475 89.3195 43.7439C89.1151 44.0127 88.8362 44.2157 88.5175 44.3275L84.2625 45.84C84.14 46.4275 84.0125 46.93 83.8775 47.355C83.6598 48.0114 83.4111 48.6571 83.1325 49.29L85.27 54.015C85.4209 54.347 85.4615 54.7186 85.3859 55.0753C85.3103 55.432 85.1225 55.7552 84.85 55.9975L80.785 59.6275C80.5173 59.8656 80.1832 60.0161 79.8276 60.059C79.4719 60.1019 79.1116 60.0351 78.795 59.8675L74.605 57.6475C73.9495 57.9946 73.2732 58.301 72.58 58.565L70.75 59.25L69.125 63.75C69.0046 64.0796 68.7874 64.365 68.5018 64.5689C68.2163 64.7728 67.8758 64.8856 67.525 64.8925L62.775 65C62.4149 65.0095 62.0607 64.9071 61.7612 64.707C61.4617 64.5068 61.2316 64.2188 61.1025 63.8825L59.1875 58.815C58.5341 58.5917 57.8872 58.3499 57.2475 58.09C56.7243 57.8635 56.209 57.6192 55.7025 57.3575L50.9525 59.3875C50.6395 59.521 50.2945 59.5607 49.9594 59.5017C49.6242 59.4426 49.3135 59.2874 49.065 59.055L45.55 55.7575C45.2883 55.5131 45.1101 55.1925 45.0405 54.8413C44.971 54.49 45.0137 54.1257 45.1625 53.8L47.205 49.35C46.9334 48.8229 46.6815 48.2859 46.45 47.74C46.1798 47.0718 45.9296 46.3957 45.7 45.7125L41.225 44.35C40.8613 44.2401 40.544 44.0131 40.3225 43.7043C40.101 43.3956 39.9876 43.0223 40 42.6425L40.175 37.84C40.1875 37.5267 40.2853 37.2227 40.4581 36.9609C40.6308 36.6992 40.8718 36.4897 41.155 36.355L45.85 34.1C46.0675 33.3025 46.2575 32.6825 46.425 32.23C46.6609 31.6256 46.9228 31.0317 47.21 30.45L45.175 26.15C45.0206 25.8235 44.9737 25.4564 45.0411 25.1015C45.1084 24.7466 45.2866 24.4222 45.55 24.175L49.06 20.86C49.3061 20.6279 49.6139 20.4719 49.9466 20.4107C50.2792 20.3495 50.6225 20.3857 50.935 20.515L55.68 22.475C56.205 22.125 56.68 21.8425 57.11 21.615C57.6225 21.3425 58.3075 21.0575 59.17 20.75L60.82 16.1475C60.942 15.8107 61.165 15.5197 61.4585 15.3143C61.752 15.109 62.1018 14.9992 62.46 15H67.695ZM65.06 32.5475C60.8925 32.5475 57.515 35.885 57.515 40.005C57.515 44.125 60.8925 47.465 65.06 47.465C69.225 47.465 72.6025 44.125 72.6025 40.005C72.6025 35.885 69.2275 32.5475 65.06 32.5475Z"
      fill="#FFF5E7" />
  </g>
  <defs>
    <clipPath id="clip0_122_115">
      <rect width="50" height="50" fill="white" transform="translate(40 15)" />
    </clipPath>
  </defs>
</svg>