<svg width="350" height="80" viewBox="0 0 350 80" fill="none" xmlns="http://www.w3.org/2000/svg">
	<rect width="350" height="80" rx="20" fill="#007FAD" />
	<path
		d="M207.32 51L200.51 29.82H205.19L210.17 46.11H208.34L213.2 29.82H216.89L221.75 46.11H219.95L224.9 29.82H229.55L222.74 51H219.05L214.16 34.71H215.9L211.01 51H207.32ZM228.165 51L236.565 29.82H240.825L249.135 51H244.155L237.795 33.42H239.505L233.055 51H228.165ZM232.935 47.16V43.32H244.485V47.16H232.935ZM251.376 51V29.82H256.086V51H251.376ZM255.006 51V46.86H265.476V51H255.006ZM268.192 51V29.82H272.902V51H268.192ZM271.822 51V46.86H282.292V51H271.822ZM285.009 51V29.82H289.719V51H285.009ZM288.609 51V46.92H300.219V51H288.609ZM288.609 42.15V38.22H299.169V42.15H288.609ZM288.609 33.87V29.82H300.069V33.87H288.609ZM308.011 51V30.12H312.721V51H308.011ZM301.381 33.93V29.82H319.351V33.93H301.381Z"
		fill="#E8EEF0" />
	<path
		d="M77.5 23.3333H52.5C47.8958 23.3333 44.1667 27.0625 44.1667 31.6667V48.3333C44.1667 52.9375 47.8958 56.6667 52.5 56.6667H77.5C82.1042 56.6667 85.8333 52.9375 85.8333 48.3333V31.6667C85.8333 27.0625 82.1042 23.3333 77.5 23.3333ZM73.625 43.6875C73.125 44.1042 72.4375 44.2708 71.7917 44.1042L48.6458 38.4375C49.2708 36.9167 50.75 35.8333 52.5 35.8333H77.5C78.8958 35.8333 80.125 36.5417 80.8958 37.5833L73.625 43.6875ZM52.5 27.5H77.5C79.7917 27.5 81.6667 29.375 81.6667 31.6667V32.8125C80.4375 32.1042 79.0208 31.6667 77.5 31.6667H52.5C50.9792 31.6667 49.5625 32.1042 48.3333 32.8125V31.6667C48.3333 29.375 50.2083 27.5 52.5 27.5Z"
		fill="#E8EEF0" />
</svg>