<svg width="50" height="50" viewBox="0 0 50 50" fill="none" xmlns="http://www.w3.org/2000/svg">
  <path
    d="M37.5 8.33334H12.5C7.89583 8.33334 4.16666 12.0625 4.16666 16.6667V33.3333C4.16666 37.9375 7.89583 41.6667 12.5 41.6667H37.5C42.1042 41.6667 45.8333 37.9375 45.8333 33.3333V16.6667C45.8333 12.0625 42.1042 8.33334 37.5 8.33334ZM33.625 28.6875C33.125 29.1042 32.4375 29.2708 31.7917 29.1042L8.64583 23.4375C9.27083 21.9167 10.75 20.8333 12.5 20.8333H37.5C38.8958 20.8333 40.125 21.5417 40.8958 22.5833L33.625 28.6875ZM12.5 12.5H37.5C39.7917 12.5 41.6667 14.375 41.6667 16.6667V17.8125C40.4375 17.1042 39.0208 16.6667 37.5 16.6667H12.5C10.9792 16.6667 9.5625 17.1042 8.33333 17.8125V16.6667C8.33333 14.375 10.2083 12.5 12.5 12.5Z"
    fill="#E8EEF0" />
</svg>