<svg width="53" height="50" viewBox="0 0 53 50" fill="none" xmlns="http://www.w3.org/2000/svg">
  <path
    d="M17.9 43.75C16.6968 43.75 15.6673 43.3424 14.8112 42.5271C13.9537 41.7104 13.525 40.7292 13.525 39.5833V10.4167C13.525 9.27083 13.9537 8.28958 14.8112 7.47292C15.6673 6.65764 16.6968 6.25 17.9 6.25H28.8375C32.4833 6.25 35.5823 7.46528 38.1343 9.89583C40.6864 12.3264 41.9625 15.2778 41.9625 18.75C41.9625 22.2222 40.6864 25.1736 38.1343 27.6042C35.5823 30.0347 32.4833 31.25 28.8375 31.25H22.275V39.5833C22.275 40.7292 21.8469 41.7104 20.9909 42.5271C20.1334 43.3424 19.1031 43.75 17.9 43.75ZM22.275 22.9167H29.275C30.4781 22.9167 31.5084 22.5083 32.3659 21.6917C33.2219 20.8764 33.65 19.8958 33.65 18.75C33.65 17.6042 33.2219 16.6229 32.3659 15.8062C31.5084 14.991 30.4781 14.5833 29.275 14.5833H22.275V22.9167Z"
    fill="#F48F00" />
</svg>