<svg width="53" height="50" viewBox="0 0 53 50" fill="none" xmlns="http://www.w3.org/2000/svg">
  <path
    d="M26.6282 4.16666C14.5532 4.16666 4.77502 13.5 4.77502 25C4.77502 36.5 14.5532 45.8333 26.6282 45.8333C38.725 45.8333 48.525 36.5 48.525 25C48.525 13.5 38.725 4.16666 26.6282 4.16666ZM35.4 33.3333C35.1977 33.5265 34.9573 33.6797 34.6926 33.7842C34.428 33.8888 34.1443 33.9426 33.8578 33.9426C33.5713 33.9426 33.2877 33.8888 33.023 33.7842C32.7584 33.6797 32.518 33.5265 32.3157 33.3333L25.1188 26.4792C24.9121 26.2862 24.7476 26.0561 24.635 25.8022C24.5224 25.5483 24.4637 25.2756 24.4625 25V16.6667C24.4625 15.5208 25.4469 14.5833 26.65 14.5833C27.8532 14.5833 28.8375 15.5208 28.8375 16.6667V24.1458L35.4 30.3958C36.2532 31.2083 36.2532 32.5208 35.4 33.3333Z"
    fill="#007FAD" />
</svg>